<?xml version="1.0" encoding="UTF-8"?><!DOCTYPE svg PUBLIC "-//W3C//DTD SVG 1.1//EN" "http://www.w3.org/Graphics/SVG/1.1/DTD/svg11.dtd"><svg xmlns="http://www.w3.org/2000/svg" xmlns:xlink="http://www.w3.org/1999/xlink"><defs><style>.cls-1{fill:none}.cls-2{clip-path:url(#clip-path)}</style><clipPath id="clip-path"><path class="cls-1" d="M-1666-978h791v900h-791z"/></clipPath><style>.cls-1{fill:none}.cls-2{clip-path:url(#clip-path)}</style><clipPath id="clip-path"><path class="cls-1" d="M-1666-1097h791v900h-791z"/></clipPath><style>.cls-1{fill:none}.cls-2{clip-path:url(#clip-path)}</style><clipPath id="clip-path"><path class="cls-1" d="M-1666-1224h791v900h-791z"/></clipPath></defs><symbol id="aktiv" viewBox="0 0 24 24"><title>aktiv</title><path d="M11.25 9.07a2.5 2.5 0 0 0-2.42 1 2.5 2.5 0 0 0-2.42-1 2.6 2.6 0 0 0-2.08 2.63 2.48 2.48 0 0 0 .73 1.77l3.41 3.41a.5.5 0 0 0 .35.15.49.49 0 0 0 .35-.15l3.41-3.41a2.52 2.52 0 0 0 .73-1.83 2.58 2.58 0 0 0-2.06-2.57zm.65 3.7l-3.07 3.05-3.06-3.06a1.54 1.54 0 0 1-.44-1.12 1.57 1.57 0 0 1 1.24-1.59h.26a1.48 1.48 0 0 1 1 .36 1.5 1.5 0 0 1 .53 1.14.5.5 0 1 0 1 0 1.5 1.5 0 0 1 1.5-1.5h.26a1.6 1.6 0 0 1 1.24 1.65 1.51 1.51 0 0 1-.47 1zM13.31 6a2.5 2.5 0 1 0-2.5-2.5 2.5 2.5 0 0 0 2.5 2.5zm0-4a1.5 1.5 0 1 1-1.5 1.5 1.5 1.5 0 0 1 1.5-1.5z"/><path d="M19.13 4.17a1.46 1.46 0 0 0-2 0L14.5 6.79a1.71 1.71 0 0 0-.35 0h-2.28a.5.5 0 0 0 0 1h2.28a.74.74 0 0 1 .29.06.5.5 0 0 0 .56-.14l2.83-2.83a.44.44 0 0 1 .6 0 .43.43 0 0 1 0 .6L15 8.86a.5.5 0 0 0-.15.35V22h-3.07l-.36-5a.49.49 0 0 0-.52-.46.5.5 0 0 0-.46.53l.39 5.5a.5.5 0 0 0 .5.46h4a.5.5 0 0 0 .46-.31.49.49 0 0 0 .17-.37V9.42l3.23-3.23a1.43 1.43 0 0 0 0-2z"/></symbol><symbol id="bell" viewBox="0 0 30 30"><path d="M26.7 22.8c-.2-.5-.6-1.1-.9-1.7-1.2-2.1-2.8-4.9-2.8-8.5v-.5V11.3 11c0-3.4-2.1-6.2-5-7.4v-.1C18 1.8 17 0 15 0c-1.9 0-3 1.8-3 3.5v.1C9.1 4.8 7 7.7 7 11V12.2c.1 3.8-1.6 6.8-2.9 9-.3.6-.6 1.1-.8 1.6-.3.7-.3 1.5.1 2.1.4.7 1.2 1.1 2 1.1h5.5c0 2.2 1.8 4 4 4s4-1.8 4-4h5.6c.8 0 1.6-.4 2-1.1.5-.6.5-1.4.2-2.1zM9.9 11.4c.1 4.8-1.8 8.6-3.2 11-.1.2-.3.3-.4.3-.1 0-.2 0-.2-.1-.2-.1-.3-.4-.2-.7 1.3-2.4 3.2-6 3-10.5-.1-1.8.7-3.6 2-4.9.2-.2.5-.2.7 0s.2.5 0 .7c-1.1 1.2-1.7 2.7-1.7 4.2z"/></symbol><symbol id="donate" viewBox="0 0 30 30"><path d="M8 27c-.3 0-.5-.2-.5-.5v-3c0-.3.2-.5.5-.5s.5.2.5.5v3c0 .3-.2.5-.5.5zM25.6 9.1c-.3 0-.6-.1-.9-.2l-10-5c-.1-.1-.2-.2-.3-.4s0-.3.1-.4l3-3c.3-.1.5-.1.7-.1l9 4c.2.1.3.3.3.5v3c0 .6-.3 1-.8 1.4-.3.1-.7.2-1.1.2zm-9.8-5.7l9.4 4.7c.3.1.7.1 1-.1.1-.1.3-.2.3-.5V4.8l-8.4-3.7-2.3 2.3z"/><path d="M8 30c-2.5 0-4.5-2-4.5-4.5 0-1.9 1.2-3.6 3-4.2h.4c.1 0 .2.2.3.3l.3.6c.5.9 1.5.8 2.2.4l.7-.4c.2-.1.4-.1.6.1.9.9 1.5 2 1.5 3.3 0 2.4-2 4.4-4.5 4.4zm-1.6-7.6c-1.1.6-1.9 1.8-1.9 3.1C4.5 27.4 6.1 29 8 29s3.5-1.6 3.5-3.5c0-.9-.3-1.7-.9-2.3l-.4.2c-1.3.8-2.9.5-3.7-.6 0-.1-.1-.3-.1-.4z"/><path d="M8.7 23.9c-.8 0-1.6-.4-2.1-1.1-.4-.6-.6-1.3-.5-2l-3-5c-.7-.9-.7-1.9 0-3l3-4.5c.3-.6.5-1 1.2-1.3l8.5-3.5c.1-.1.3-.1.4 0L24.7 8c.2.1.3.4.2.7 0 0-1.4 2.8-4 7-2.5 4.1-6.1 5.1-6.7 5.2l-3.9 2.5c-.6.3-1.1.5-1.6.5zM10.5 11c.1 0 .3.1.4.2 0 0 1.2 1.3 3.1 1.3.2 0 .4.1.5.3.1.2 0 .4-.1.5-1.1 1.1-1.9 2.8-1.9 3.1 0 .3-.2.5-.5.5-.3.1-2.4 1.2-4.2 2.4-.3.2-.6.6-.7 1-.1.6 0 1.3.3 1.8.6 1 1.6.9 2.3.5l4-2.5c.1 0 .1-.1.2-.1 0 0 3.7-.7 6.2-4.8 2-3.3 3.3-5.6 3.8-6.5L16 4.6 7.7 8c-.4.1-.5.3-.8.7l-3 4.6c-.5.8-.5 1.3 0 1.9l2.5 4.2c.2-.4.5-.6.8-.8 0 0 .5-.3 1.2-.7-.1-.5-.3-.9-.4-.9-.3 0-.5-.2-.5-.5 0-1.1-.7-1.6-.8-1.6-.2-.1-.3-.4-.2-.6.1-.2.3-.3.5-.3.5-.1 2.9-2 3-2.5 0-.2.1-.4.3-.5h.2zm-2 5.1c.4.2.7.8.8 1.2.8-.5 1.7-1 2.2-1.2.2-.7.7-1.8 1.4-2.7-1.1-.2-1.9-.7-2.3-1.1-.6.8-1.8 1.8-2.8 2.4.3.3.6.8.7 1.4z"/></symbol><symbol id="down" viewBox="0 0 24 24"><path d="M12 20.508a.504.504 0 0 1-.354-.146l-7-7.008A.5.5 0 1 1 5 12.5h3.5V5.008a.5.5 0 0 1 .5-.5h6a.5.5 0 0 1 .5.5V12.5H19a.5.5 0 0 1 .354.854l-7 7.008a.5.5 0 0 1-.354.146zM6.206 13.5L12 19.301l5.794-5.801H15a.5.5 0 0 1-.5-.5V5.508h-5V13a.5.5 0 0 1-.5.5H6.206z"/><path d="M12 23.5C5.659 23.5.5 18.341.5 12S5.659.5 12 .5 23.5 5.659 23.5 12 18.341 23.5 12 23.5zm0-22C6.21 1.5 1.5 6.21 1.5 12S6.21 22.5 12 22.5 22.5 17.79 22.5 12 17.79 1.5 12 1.5z"/></symbol><symbol id="facebook" viewBox="0 0 30 30"><path d="M27 0H3C1.3 0 0 1.3 0 3v24c0 1.7 1.3 3 3 3h13.5c.3 0 .5-.2.5-.5v-11c0-.3-.2-.5-.5-.5H13v-3h3.5c.3 0 .5-.2.5-.5v-4C17 7.3 19.3 5 22.5 5H25v3h-2c-1.7 0-3 1.3-3 3v3.5c0 .3.2.5.5.5h4.3l-1.1 3h-3.2c-.3 0-.5.2-.5.5v11c0 .3.2.5.5.5H27c1.7 0 3-1.3 3-3V3c0-1.7-1.3-3-3-3z"/></symbol><symbol id="gift" viewBox="0 0 24 24"><path d="M21.5 4h-19C1.1 4 0 5.1 0 6.5v11C0 18.9 1.1 20 2.5 20h19c1.4 0 2.5-1.1 2.5-2.5v-11C24 5.1 22.9 4 21.5 4zM6 19H2.5c-.8 0-1.5-.7-1.5-1.5V10h4.2c-.6.6-1.2 1.5-1.2 2.5 0 .3.2.5.5.5s.5-.2.5-.5c0-.6.5-1.4 1-1.9V19zM3.5 7.5c-.1-.2.1-.4.3-.7.2-.2.4-.3.6-.3h.1c.5.2 1 1.3 1.3 2.3-1-.3-2.1-.8-2.3-1.3zM6 6.6c-.3-.5-.7-.9-1.2-1.1-.4-.1-1-.1-1.7.6s-.7 1.3-.6 1.7c.1.5.6.9 1.1 1.2H1V6.5C1 5.7 1.7 5 2.5 5H6v1.6zM23 9h-1.8c-.1.3-.2.6-.3 1H23v7.5c0 .8-.7 1.5-1.5 1.5H7v-8.4c.5.5 1 1.2 1 1.9 0 .3.2.5.5.5s.5-.2.5-.5c0-1-.6-1.9-1.2-2.5h6l.1-.1c.3-.3.7-.6 1-.9H9.4c.5-.3.9-.7 1.1-1.2.1-.4.1-1-.6-1.7s-1.3-.7-1.7-.6c-.5.1-.9.6-1.2 1.1V5h14.5c.8 0 1.5.7 1.5 1.5V9zM7.2 8.8c.3-1 .8-2.1 1.3-2.3h.1c.2 0 .4.1.6.3.3.3.4.5.3.7-.2.5-1.3 1-2.3 1.3z"/><path d="M20.3 7.9c-.1-.1-.3-.1-.4-.1-.5.1-3.4.7-5.4 2.7-2.1 2.1-2 3.8-1.8 4.4l-1.5 1.5c-.1.1-.1.2-.1.3s0 .2.1.3c.1.1.2.1.3.1.1 0 .2-.1.3-.1l1.5-1.5c.2.1.4.1.7.1.8 0 2.1-.3 3.7-1.9 2-2 2.6-4.8 2.7-5.4.1-.2 0-.3-.1-.4zm-3.3 4c.1-.1.1-.2.1-.3 0-.1 0-.2-.1-.3-.2-.2-.5-.2-.6 0l-2.8 2.8c0-.6.3-1.7 1.7-3 1.3-1.3 3.2-2 4.3-2.3-.2.8-.9 2.8-2.3 4.3-1.3 1.3-2.4 1.6-3 1.7l2.7-2.9z"/></symbol><symbol id="hand-heart-ou" viewBox="0 0 30 30"><title>hand-heart-ou</title><path d="M29.65 22.61h-2V21.79h1.38a.35.35 0 0 0 0-.69h-1.32v-.82h.85a.35.35 0 1 0 0-.69h-.83l.13-5.36a1.56 1.56 0 0 0-2.73-1.07 2.27 2.27 0 0 0-.63 1l-1 2.83-1.68-1.68-.42.56 2 2a.36.36 0 0 0 .29.1c.1 0 .2-.1.24-.24L25 14.34c.53-1.21 1.56-1.07 1.9-.73a.75.75 0 0 1 .24.63l-.2 8.2a6.49 6.49 0 0 1-2 4.39 5.07 5.07 0 0 1-7.12.2l-17-17A1.05 1.05 0 0 1 1 8.65a1 1 0 0 1 1.42 0l7.08 7.03-.5.46a.34.34 0 1 0 .49.49l.6-.6v-.07h.05a.33.33 0 0 0 0-.49L1.69 6.89a1 1 0 0 1 0-1.42 1 1 0 0 1 1.42 0l8.3 8.3-.44.44a.34.34 0 1 0 .49.49l.66-.66a.33.33 0 0 0 0-.49l-9.7-9.83a1 1 0 0 1 0-1.42 1 1 0 0 1 1.42 0l9.52 9.52-.5.5a.34.34 0 1 0 .49.49l.63-.63a.33.33 0 0 0 0-.07h.06a.33.33 0 0 0 0-.49L5.59 3a1 1 0 0 1 0-1.42 1 1 0 0 1 1.42 0l6.79 6.79.3-.67L7.55 1a1.69 1.69 0 0 0-2.39 0 1.69 1.69 0 0 0-.49 1l-.29-.29A1.69 1.69 0 0 0 2 1.82a1.69 1.69 0 0 0 0 2.39l.29.29a1.69 1.69 0 0 0-1 .49 1.69 1.69 0 0 0 0 2.39l.29.29a1.69 1.69 0 0 0-1 .49 1.69 1.69 0 0 0 0 2.39l14.1 14.21-1.11 1.11a.34.34 0 1 0 .49.49l1.11-1.11.58.58L14 27.58a.34.34 0 1 0 .49.49l1.75-1.75.58.58-1.37 1.37a.34.34 0 1 0 .49.49l1.37-1.37.14.14a5.24 5.24 0 0 0 .47.42l-.89.89a.34.34 0 1 0 .49.49l.89-.89a.34.34 0 0 0 .08-.15 5.85 5.85 0 0 0 7.09-1 7.42 7.42 0 0 0 1.65-2.52h1.9a.35.35 0 0 0 0-.69h-1.72a7 7 0 0 0 .18-.82h2.06a.35.35 0 0 0 0-.69z"/><path d="M19.51 16a.34.34 0 0 0 .49 0l4.14-4.48a2.72 2.72 0 0 0 .78-1.94v-.11a3 3 0 0 0-2.3-3 2.54 2.54 0 0 0-2.08.6 3.2 3.2 0 0 0-.79 1 3.19 3.19 0 0 0-.79-1 2.54 2.54 0 0 0-2.08-.6 3 3 0 0 0-2.3 3v.08a2.71 2.71 0 0 0 .78 1.94zm-4.23-6.5A2.28 2.28 0 0 1 17 7.15h.3a1.9 1.9 0 0 1 1.22.47 2.6 2.6 0 0 1 .9 1.94.35.35 0 0 0 .69 0A2.6 2.6 0 0 1 21 7.59a1.84 1.84 0 0 1 1.52-.44 2.28 2.28 0 0 1 1.72 2.32v.08a2 2 0 0 1-.6 1.47l-3.89 4.21L15.87 11a2 2 0 0 1-.6-1.47z"/></symbol><symbol id="heartshop" viewBox="0 0 30 30"><path d="M23 12c-.3 0-.5-.2-.5-.5v-7c0-1.8-2.3-3.5-4-3.5H11C9.2 1 7.5 2.7 7.5 4.5v7c0 .3-.2.5-.5.5s-.5-.2-.5-.5v-7C6.5 2.1 8.6 0 11 0h7.5c2.3 0 5 2.1 5 4.5v7c0 .3-.2.5-.5.5z"/><path d="M20 8H10c-.3 0-.5-.2-.5-.5s.2-.5.5-.5h10c.3 0 .5.2.5.5s-.2.5-.5.5z"/><path d="M29 30H1c-.3 0-.5-.2-.5-.5v-22c0-.3.2-.5.5-.5h4c.3 0 .5.2.5.5S5.3 8 5 8H1.5v21h27V8H25c-.3 0-.5-.2-.5-.5s.2-.5.5-.5h4c.3 0 .5.2.5.5v22c0 .3-.2.5-.5.5z"/></symbol><symbol id="menu" viewBox="0 0 30 30"><title>menu</title><path d="M19.64 6.47H4.36a1 1 0 0 1 0-2h15.28a1 1 0 0 1 0 2zM23.64 22.52H4.36a1 1 0 0 1 0-2h19.28a1 1 0 0 1 0 2zM25.64 14.49H4.36a1 1 0 0 1 0-2h21.28a1 1 0 0 1 0 2z"/></symbol><symbol id="search" viewBox="0 0 30 30"><title>search</title><path d="M25.75 24.82L19.91 19a9.54 9.54 0 1 0-1.41 1.41l5.85 5.84a1 1 0 0 0 1.41-1.41zM5 13a7.52 7.52 0 1 1 7.52 7.52A7.53 7.53 0 0 1 5 13z"/></symbol><symbol id="signup" viewBox="0 0 24 24"><path d="M6.5 8h9a.5.5 0 0 0 0-1h-9a.5.5 0 0 0 0 1zM3.5 18c-.827 0-1.5.673-1.5 1.5S2.673 21 3.5 21 5 20.327 5 19.5 4.327 18 3.5 18zm0 2a.5.5 0 1 1 0-1 .5.5 0 0 1 0 1zM3.5 14c-.827 0-1.5.673-1.5 1.5S2.673 17 3.5 17 5 16.327 5 15.5 4.327 14 3.5 14zm0 2a.5.5 0 1 1 0-1 .5.5 0 0 1 0 1zM3.5 10c-.827 0-1.5.673-1.5 1.5S2.673 13 3.5 13 5 12.327 5 11.5 4.327 10 3.5 10zm0 2a.5.5 0 1 1 0-1 .5.5 0 0 1 0 1zM3.5 6C2.673 6 2 6.673 2 7.5S2.673 9 3.5 9 5 8.327 5 7.5 4.327 6 3.5 6zm0 2a.5.5 0 1 1 0-1 .5.5 0 0 1 0 1z"/><path d="M24 7.62a2.624 2.624 0 0 0-4.475-1.852l-1.379 1.379-.146.146V3.5c0-.827-.673-1.5-1.5-1.5h-2.592c-.207-.581-.757-1-1.408-1h-1.774C10.373.39 9.718 0 9 0S7.627.39 7.274 1H5.5c-.651 0-1.201.419-1.408 1H1.5C.673 2 0 2.673 0 3.5v19c0 .827.673 1.5 1.5 1.5h15c.827 0 1.5-.673 1.5-1.5v-7.794l3.85-3.85.003-.002.002-.003 1.377-1.377A2.6 2.6 0 0 0 24 7.62zm-10.235 9.907a4.021 4.021 0 0 0-.913-1.381 4.012 4.012 0 0 0-1.379-.911L18.5 8.208l2.292 2.292-7.027 7.027zm-2.893-1.45c.323.094.801.302 1.274.776.474.474.683.953.777 1.275l-2.736.685.685-2.736zM5.5 2h2.092c.211 0 .4-.134.471-.333A1 1 0 0 1 9 1a1 1 0 0 1 .937.667.5.5 0 0 0 .471.333H12.5a.5.5 0 0 1 .5.5V3H5v-.5a.5.5 0 0 1 .5-.5zM17 22.5a.5.5 0 0 1-.5.5h-15a.5.5 0 0 1-.5-.5v-19a.5.5 0 0 1 .5-.5H4v.5a.5.5 0 0 0 .5.5h9a.5.5 0 0 0 .5-.5V3h2.5a.5.5 0 0 1 .5.5v4.793l-2.77 2.77A.489.489 0 0 0 14 11H6.5a.5.5 0 0 0 0 1h6.793l-3 3H6.5a.5.5 0 0 0 0 1h3.36l-.75 3H6.5a.5.5 0 0 0 0 1h3a.452.452 0 0 0 .121-.016l4-1c.012-.003.02-.014.032-.018a.503.503 0 0 0 .169-.095c.009-.008.023-.009.032-.018L17 15.706V22.5zm5.525-13.733l-1.026 1.026-2.292-2.292 1.026-1.027a1.623 1.623 0 0 1 2.292 2.293z"/></symbol><symbol id="sprout" viewBox="0 0 50 50"><path d="M44.1 5.9c-.3-.3-.7-.4-1.1-.3-.7.1-16.8 3.1-27.6 14C1.5 33.4 6.3 42.6 6.5 43c.1.2.3.4.5.5.2.1 1.9 1 4.8 1 4.1 0 10.6-1.7 18.7-9.8 10.9-10.9 13.8-27 14-27.6 0-.5-.1-.9-.4-1.2zm-15.4 27c-6.5 6.5-11.8 8.5-15.1 9-1.5.2-2.8.1-3.7 0l16.3-16.3c.5-.5.5-1.3 0-1.8s-1.3-.5-1.8 0L8.2 40c-.2-.9-.2-2.2 0-3.7.5-3.3 2.4-8.5 9-15.1C25.4 13 37.1 9.5 41.6 8.3c-1.1 4.6-4.6 16.3-12.9 24.6z"/></symbol><symbol id="sprout1" viewBox="0 0 100 100"><title>sprout1</title><image width="2708" height="2028" transform="translate(-2657 -1603)" xlink:href="../../../../../../../../Volumes/Milkout/Dropbox (Personal)/Design/Clients/BOS/ONETREEONELIFE/exports/Artboard 2.png" class="cls-2"/><path d="M65.49 71.17C64.29 70.29 48 52 45.86 47s7.14 9 22.5 23C70 34 31.68 28.74 31.68 28.74a39.91 39.91 0 0 0 34.08 42.63z"/></symbol><symbol id="sprout2" viewBox="0 0 100 100"><title>sprout2</title><image width="2708" height="2028" transform="translate(-2657 -1722)" xlink:href="../../../../../../../../Volumes/Milkout/Dropbox (Personal)/Design/Clients/BOS/ONETREEONELIFE/exports/Artboard 2.png" class="cls-2"/><path d="M70 18s-27.85 8.92-22.22 35.51c.69-1 9.22-15.51 13-16.14-1.53 1.14-10.94 16.27-11.64 17.48A30.5 30.5 0 0 0 70 18zM48.45 79.51C49.46 78.43 60 64 63.94 64.45 60 68 51 79.27 50.17 80.4A30.49 30.49 0 0 0 78.87 50s-29.72 1.67-30.42 29.51zM32 55.79c.68 1.78 12.31 14.64 13.11 15.45 1.27-27.71-28.17-31.6-28.17-31.6a30.5 30.5 0 0 0 26.58 32.5C42.85 71.4 31 59 32 55.79z"/></symbol><symbol id="sprout3" viewBox="0 0 100 100"><title>sprout3</title><image width="2708" height="2028" transform="translate(-2657 -1849)" xlink:href="../../../../../../../../Volumes/Milkout/Dropbox (Personal)/Design/Clients/BOS/ONETREEONELIFE/exports/Artboard 2.png" class="cls-2"/><path d="M31.13 44.73c-12.82-1-12.57-14.59-12.57-14.59A13.61 13.61 0 0 1 31.1 44.75M47.39 73.3c-.6 12.85-14.21 13-14.21 13a13.61 13.61 0 0 1 14.23-13M53.29 33.92c-5.18-11.76 6.94-18 6.94-18a13.62 13.62 0 0 1-7 17.95M72.7 53.12c-.79-12.83 12.73-14.44 12.73-14.44A13.62 13.62 0 0 1 72.67 53.1"/><path d="M73.93 26.66S48.84 34 53.24 57.83C53.87 57 62 45 65.21 43.73 64 45 55.06 58 54.41 59.06a27.23 27.23 0 0 0 19.52-32.4zM50.39 78.59C51.43 77.77 63 67 66.1 67.4 65 68 52.7 78.73 51.79 79.61a27.24 27.24 0 0 0 29.45-23s-26.47-2.49-30.85 21.98zM33.34 58.29c1.16 1.24 15.1 8 16 8.38C41.13 43.32 15.46 50 15.46 50a27.23 27.23 0 0 0 32.9 18c-.76-.45-14.36-7-15.02-9.71zM38.56 34.75C39 38 45.91 51.5 46.62 53a27.22 27.22 0 0 0-10.84-36.75S24.91 39 44.22 51.78C43.87 51 38 37 38.56 34.75z"/></symbol><symbol id="tree" viewBox="0 0 50 50"><path d="M38.4 38.2L31.9 27h2.6c.4 0 .9-.2 1.1-.6.2-.4.2-.9 0-1.2L30 15.3h1.6c.4 0 .9-.2 1.1-.6.2-.4.2-.9 0-1.2L26.1 2.1c-.4-.8-1.7-.8-2.2 0l-6.6 11.4c-.2.4-.2.9 0 1.2.2.4.6.6 1.1.6H20l-5.7 9.8c-.2.4-.2.9 0 1.2.2.4.6.6 1.1.6H18l-6.5 11.2c-.2.4-.2.9 0 1.2.2.4.6.6 1.1.6h11.1v7.2c0 .7.6 1.2 1.2 1.2s1.2-.6 1.2-1.2v-7.2h11.1c.4 0 .9-.2 1.1-.6.3-.3.3-.7.1-1.1zm-12.2-.6v-6c0-.7-.6-1.2-1.2-1.2s-1.2.6-1.2 1.2v6h-8.9l6.5-11.2c.2-.4.2-.9 0-1.2-.2-.4-.6-.6-1.1-.6h-2.6l5.7-9.8c.2-.4.2-.9 0-1.2-.2-.4-.6-.6-1.1-.6h-1.6L25 5.2l4.4 7.6h-1.6c-.4 0-.9.2-1.1.6-.2.4-.2.9 0 1.2l5.7 9.8h-2.6c-.4 0-.9.2-1.1.6-.2.4-.2.9 0 1.2l6.5 11.2h-9z"/></symbol><symbol id="twitter" viewBox="0 0 30 30"><path d="M29.4 5.7c-.2-.2-.4-.2-.6-.1-.3.1-.7.3-1.1.5.4-.6.7-1.3.8-1.9.1-.2 0-.4-.2-.5-.2-.1-.4-.1-.6 0-1 .6-2.4 1.1-2.9 1.2-1.1-.9-2.5-1.4-3.8-1.4-1.7 0-3.3.7-4.6 1.9a6.42 6.42 0 0 0-1.9 4.6C9.6 9.5 6.7 6.5 4.4 3.7c-.1-.1-.3-.2-.4-.2-.2 0-.3.1-.4.2C2.2 6 2.5 8.3 2.8 9.4c.2.8.5 1.4.9 2-.5-.2-.9-.4-1.3-.8-.1-.1-.4-.1-.5-.1-.2.1-.3.3-.3.5 0 2.9 2 4.8 3.6 5.8-.3-.1-.6-.1-1-.3-.2-.1-.4 0-.5.1-.1.1-.2.4-.1.5.9 2.1 2.9 3.7 5.1 4.1-2 1.2-5.2 1.9-7.6 1.7-.2 0-.5.1-.5.3-.1.2 0 .5.2.6 3 1.7 6.2 2.6 9.3 2.6 4.9 0 9.8-2.2 13.2-6.1 3-3.3 4.6-7.5 4.3-11.2.5-.4.8-1.1 1.2-1.8.2-.3.4-.7.6-1 .1-.2.1-.5 0-.6z"/></symbol></svg>