<svg id="Layer_1" data-name="Layer 1" xmlns="http://www.w3.org/2000/svg" viewBox="0 0 48.45 48.45">
  <title>bell</title>
  <path d="M35.92,32c-.2-.5-.6-1.1-.9-1.7-1.2-2.1-2.8-4.9-2.8-8.5v-1.6a8,8,0,0,0-5-7.4v-.1c0-1.7-1-3.5-3-3.5s-3,1.8-3,3.5v.1a8.1,8.1,0,0,0-5,7.4v1.2c.1,3.8-1.6,6.8-2.9,9-.3.6-.6,1.1-.8,1.6a2.22,2.22,0,0,0,.1,2.1,2.31,2.31,0,0,0,2,1.1h5.5a4,4,0,0,0,8,0h5.6a2.31,2.31,0,0,0,2-1.1A2,2,0,0,0,35.92,32Zm-16.8-11.4a20.82,20.82,0,0,1-3.2,11,.54.54,0,0,1-.4.3c-.1,0-.2,0-.2-.1a.57.57,0,0,1-.2-.7h0c1.3-2.4,3.2-6,3-10.5a6.56,6.56,0,0,1,2-4.9.49.49,0,0,1,.7.7A6.25,6.25,0,0,0,19.12,20.62Z"/>
</svg>
