<svg id="Layer_1" data-name="Layer 1" xmlns="http://www.w3.org/2000/svg" viewBox="0 0 30 30">
  <title>gift-solid</title>
  <g>
    <path d="M6.1,7a1.18,1.18,0,0,0-.6.5,1.2,1.2,0,0,0-.4,1.4c.3.9,1.8,1.6,2.8,1.9C7.5,8.9,6.7,7,6.1,7Z"/>
    <path d="M5.8,11A3,3,0,0,1,4.1,9.2a2.37,2.37,0,0,1,.6-2.3A1.74,1.74,0,0,1,6.1,6C7,6,7.6,6.8,8,7.7V5H2.5A2.48,2.48,0,0,0,0,7.5V11Z"/>
    <path d="M8,12.5c-.9.8-2,2-2,3a.47.47,0,0,1-.5.5.47.47,0,0,1-.5-.5A5.19,5.19,0,0,1,7.1,12H0V22.5A2.48,2.48,0,0,0,2.5,25H8Z"/>
    <path d="M11.5,7.5a1.18,1.18,0,0,0-.6-.5c-.6,0-1.3,1.9-1.7,3.8,1-.3,2.5-1,2.8-1.9A1.46,1.46,0,0,0,11.5,7.5Z"/>
  </g>
  <path d="M30,11V7.5A2.48,2.48,0,0,0,27.5,5H9V7.7c.4-1,1-1.7,1.9-1.7a2,2,0,0,1,1.5.9A2.64,2.64,0,0,1,13,9.2,3.72,3.72,0,0,1,11.3,11H20a11.51,11.51,0,0,0-1.5,1H9.9c.9.8,2.1,2.2,2.1,3.5a.5.5,0,0,1-1,0c0-1-1.1-2.2-2-3V25H27.5A2.48,2.48,0,0,0,30,22.5V12H26.35c.12-.38.21-.72.28-1ZM15.09,20.06a59.68,59.68,0,0,1,6.25-6.12c-1.36.58-6.33,5-6.57,5.34l0,.07A10.84,10.84,0,0,1,26.3,10.09S24.87,20.5,15.09,20.06Z"/>
</svg>
