<?xml version="1.0" encoding="utf-8"?>
<!-- Generator: Adobe Illustrator 22.0.1, SVG Export Plug-In . SVG Version: 6.00 Build 0)  -->
<!DOCTYPE svg PUBLIC "-//W3C//DTD SVG 1.1//EN" "http://www.w3.org/Graphics/SVG/1.1/DTD/svg11.dtd">
<svg version="1.1" id="Layer_1" xmlns="http://www.w3.org/2000/svg" xmlns:xlink="http://www.w3.org/1999/xlink" x="0px" y="0px"
	 viewBox="0 0 24 24" style="enable-background:new 0 0 24 24;" xml:space="preserve">
<path d="M21.5,4h-19C1.1,4,0,5.1,0,6.5v11C0,18.9,1.1,20,2.5,20h19c1.4,0,2.5-1.1,2.5-2.5v-11C24,5.1,22.9,4,21.5,4z M6,19H2.5
	C1.7,19,1,18.3,1,17.5V10h4.2C4.6,10.6,4,11.5,4,12.5C4,12.8,4.2,13,4.5,13S5,12.8,5,12.5c0-0.6,0.5-1.4,1-1.9V19z M3.5,7.5
	C3.4,7.3,3.6,7.1,3.8,6.8C4,6.6,4.2,6.5,4.4,6.5h0.1c0.5,0.2,1,1.3,1.3,2.3C4.8,8.5,3.7,8,3.5,7.5z M6,6.6C5.7,6.1,5.3,5.7,4.8,5.5
	c-0.4-0.1-1-0.1-1.7,0.6C2.4,6.8,2.4,7.4,2.5,7.8C2.6,8.3,3.1,8.7,3.6,9H1V6.5C1,5.7,1.7,5,2.5,5H6V6.6z M23,9h-1.8
	c-0.1,0.3-0.2,0.6-0.3,1H23v7.5c0,0.8-0.7,1.5-1.5,1.5H7v-8.4c0.5,0.5,1,1.2,1,1.9C8,12.8,8.2,13,8.5,13S9,12.8,9,12.5
	c0-1-0.6-1.9-1.2-2.5h6c0,0,0.1-0.1,0.1-0.1c0.3-0.3,0.7-0.6,1-0.9H9.4c0.5-0.3,0.9-0.7,1.1-1.2c0.1-0.4,0.1-1-0.6-1.7
	S8.6,5.4,8.2,5.5C7.7,5.6,7.3,6.1,7,6.6V5h14.5C22.3,5,23,5.7,23,6.5V9z M7.2,8.8c0.3-1,0.8-2.1,1.3-2.3h0.1c0.2,0,0.4,0.1,0.6,0.3
	c0.3,0.3,0.4,0.5,0.3,0.7C9.3,8,8.2,8.5,7.2,8.8z"/>
<path d="M20.3,7.9c-0.1-0.1-0.3-0.1-0.4-0.1c-0.5,0.1-3.4,0.7-5.4,2.7c-2.1,2.1-2,3.8-1.8,4.4l-1.5,1.5c-0.1,0.1-0.1,0.2-0.1,0.3
	s0,0.2,0.1,0.3c0.1,0.1,0.2,0.1,0.3,0.1c0.1,0,0.2-0.1,0.3-0.1l1.5-1.5c0.2,0.1,0.4,0.1,0.7,0.1c0.8,0,2.1-0.3,3.7-1.9
	c2-2,2.6-4.8,2.7-5.4C20.5,8.1,20.4,8,20.3,7.9z M17,11.9c0.1-0.1,0.1-0.2,0.1-0.3c0-0.1,0-0.2-0.1-0.3c-0.2-0.2-0.5-0.2-0.6,0
	l-2.8,2.8c0-0.6,0.3-1.7,1.7-3c1.3-1.3,3.2-2,4.3-2.3c-0.2,0.8-0.9,2.8-2.3,4.3c-1.3,1.3-2.4,1.6-3,1.7L17,11.9z"/>
</svg>
