<svg id="Layer_1" data-name="Layer 1" xmlns="http://www.w3.org/2000/svg" xmlns:xlink="http://www.w3.org/1999/xlink" viewBox="0 0 100 100">
    <path d="M70,18S42.15,26.92,47.78,53.51c.69-1,9.22-15.51,13-16.14-1.53,1.14-10.94,16.27-11.64,17.48A30.5,30.5,0,0,0,70,18Z"/>
    <path d="M48.45,79.51C49.46,78.43,60,64,63.94,64.45,60,68,51,79.27,50.17,80.4A30.49,30.49,0,0,0,78.87,50S49.15,51.67,48.45,79.51Z"/>
    <path d="M32,55.79c.68,1.78,12.31,14.64,13.11,15.45,1.27-27.71-28.17-31.6-28.17-31.6a30.5,30.5,0,0,0,26.58,32.5C42.85,71.4,31,59,32,55.79Z"/>
</svg>
