<?xml version="1.0" encoding="utf-8"?>
<!-- Generator: Adobe Illustrator 18.1.1, SVG Export Plug-In . SVG Version: 6.00 Build 0)  -->
<svg version="1.1" id="Layer_1" xmlns="http://www.w3.org/2000/svg" xmlns:xlink="http://www.w3.org/1999/xlink" x="0px" y="0px"
	 viewBox="0 0 50 50" enable-background="new 0 0 50 50" xml:space="preserve">
<path d="M44.1,5.9c-0.3-0.3-0.7-0.4-1.1-0.3c-0.7,0.1-16.8,3.1-27.6,14C1.5,33.4,6.3,42.6,6.5,43
	c0.1,0.2,0.3,0.4,0.5,0.5c0.2,0.1,1.9,1,4.8,1c4.1,0,10.6-1.7,18.7-9.8c10.9-10.9,13.8-27,14-27.6C44.5,6.6,44.4,6.2,44.1,5.9z
	 M28.7,32.9c-6.5,6.5-11.8,8.5-15.1,9c-1.5,0.2-2.8,0.1-3.7,0l16.3-16.3c0.5-0.5,0.5-1.3,0-1.8s-1.3-0.5-1.8,0L8.2,40
	c-0.2-0.9-0.2-2.2,0-3.7c0.5-3.3,2.4-8.5,9-15.1c8.2-8.2,19.9-11.7,24.4-12.9C40.5,12.9,37,24.6,28.7,32.9z"/>
</svg>
