<?xml version="1.0" encoding="utf-8"?>
<!-- Generator: Adobe Illustrator 18.1.1, SVG Export Plug-In . SVG Version: 6.00 Build 0)  -->
<svg version="1.1" id="Layer_1" xmlns="http://www.w3.org/2000/svg" xmlns:xlink="http://www.w3.org/1999/xlink" x="0px" y="0px"
	 viewBox="0 0 50 50" enable-background="new 0 0 50 50" xml:space="preserve">
<g>
	<path  d="M28.9,32c-2.3-0.6-4.6,0.8-5.2,3.1c-0.6,2.3,0.8,4.6,3.1,5.2c0.3,0.1,0.7,0.1,1,0.1c1.9,0,3.7-1.3,4.2-3.3
		c0.3-1.1,0.1-2.3-0.5-3.2C30.9,33,30,32.3,28.9,32z M29.6,36.6C29.6,36.6,29.6,36.6,29.6,36.6c-0.2,1-1.2,1.5-2.2,1.3
		c-1-0.2-1.5-1.2-1.3-2.2c0.2-0.8,0.9-1.4,1.7-1.4c0.1,0,0.3,0,0.4,0.1c0.5,0.1,0.9,0.4,1.1,0.8C29.6,35.7,29.7,36.2,29.6,36.6z"/>
	<path  d="M32.6,18.9c-8.5-2.8-14.1,3.5-14.3,3.8c-0.3,0.3-0.4,0.7-0.3,1.1c0.1,0.4,0.3,0.7,0.7,0.9
		c1.9,0.9,3.6,1.3,5.3,1.3c4.6,0,7.9-3,9.3-5.1c0.2-0.3,0.3-0.7,0.1-1.1C33.3,19.3,33,19,32.6,18.9z M21.6,23.1
		c1.6-1.2,4.6-2.8,8.4-2.2C28.5,22.3,25.6,24.2,21.6,23.1z"/>
	<path  d="M4.6,22.2C4.3,22,3.9,21.9,3.5,22c-0.4,0.1-0.7,0.4-0.8,0.8c-0.1,0.2-1.8,5.9,0.9,9.5
		c1.4,1.9,3.6,2.8,6.7,2.8c0,0,0,0,0.1,0c0.6,0,1.2-0.5,1.2-1.1C11.6,33.8,12,27.9,4.6,22.2z M5.6,30.9c-1.1-1.5-1.1-3.8-0.9-5.3
		c3.1,2.9,4,5.6,4.3,7.1C7.4,32.4,6.3,31.8,5.6,30.9z"/>
	<path  d="M41.8,11.3c-0.1,0-0.2-0.1-0.2-0.1c-0.7-0.5-3.8-2.6-8.4-2.6c-3.5,0-7.1,1.1-10.3,3.1
		c0.3-2.4,0.3-5.8-1-9.9C21.7,1.5,21.4,1.2,21,1c-0.4-0.1-0.8,0-1.2,0.3C19.7,1.5,15.7,5,16,9.4c0.1,2,1.1,3.9,2.9,5.5
		c-4,3.8-6.7,9.2-6.7,15.5c0,8.7,6,16.9,13.7,18.7c0.1,0,0.2,0,0.3,0c0.6,0,1.1-0.4,1.2-1c0.2-0.7-0.3-1.3-0.9-1.5
		c-6.6-1.6-11.7-8.7-11.7-16.2c0-5.1,2.6-10.6,6.9-14.4c0.1-0.1,0.2-0.2,0.3-0.3c3.1-2.7,7-4.4,11.4-4.4c3,0,5.3,1.1,6.3,1.7
		c-1.9,9,6.3,13.5,6.4,13.5c0.2,0.1,0.4,0.1,0.6,0.1c0.2,0,0.4,0,0.6-0.1c0.4-0.2,0.6-0.6,0.7-1C48.9,14,43.5,12,41.8,11.3z
		 M20.1,4.8c0.8,3.5,0.4,6.2,0.1,7.9c-1.1-1.1-1.6-2.2-1.7-3.4C18.4,7.5,19.2,5.9,20.1,4.8z M45.4,23c-1.8-1.5-4.2-4.5-3.6-8.9
		C43.4,14.9,45.6,16.8,45.4,23z"/>
</g>
</svg>
