<svg id="Layer_1" data-name="Layer 1" xmlns="http://www.w3.org/2000/svg" xmlns:xlink="http://www.w3.org/1999/xlink" viewBox="0 0 100 100">
  <defs>
    <style>
      .cls-1 {
        fill: none;
      }

      .cls-2 {
        clip-path: url(#clip-path);
      }
    </style>
    <clipPath id="clip-path">
      <rect class="cls-1" x="-1666" y="-1224" width="791" height="900"/>
    </clipPath>
  </defs>
  <title>sprout3</title>
  <path d="M31.13,44.73c-12.82-1-12.57-14.59-12.57-14.59A13.61,13.61,0,0,1,31.1,44.75"/>
  <path d="M47.39,73.3c-.6,12.85-14.21,13-14.21,13a13.61,13.61,0,0,1,14.23-13"/>
  <path d="M53.29,33.92c-5.18-11.76,6.94-18,6.94-18a13.62,13.62,0,0,1-7,17.95"/>
  <path d="M72.7,53.12c-.79-12.83,12.73-14.44,12.73-14.44A13.62,13.62,0,0,1,72.67,53.1"/>
  <path d="M73.93,26.66S48.84,34,53.24,57.83C53.87,57,62,45,65.21,43.73,64,45,55.06,58,54.41,59.06A27.23,27.23,0,0,0,73.93,26.66Z"/>
  <path d="M50.39,78.59C51.43,77.77,63,67,66.1,67.4,65,68,52.7,78.73,51.79,79.61a27.24,27.24,0,0,0,29.45-23S54.77,54.12,50.39,78.59Z"/>
  <path d="M33.34,58.29c1.16,1.24,15.1,8,16,8.38C41.13,43.32,15.46,50,15.46,50a27.23,27.23,0,0,0,32.9,18C47.6,67.55,34,61,33.34,58.29Z"/>
  <path d="M38.56,34.75C39,38,45.91,51.5,46.62,53A27.22,27.22,0,0,0,35.78,16.25S24.91,39,44.22,51.78C43.87,51,38,37,38.56,34.75Z"/>
</svg>
