<svg id="Layer_1" data-name="Layer 1" xmlns="http://www.w3.org/2000/svg" viewBox="0 0 50 50">
  <title>tree-small</title>
  <path id="tree-small" d="M34.26,19.21a3,3,0,0,0,.05-.53,3.14,3.14,0,0,0-2.83-3.12,5.36,5.36,0,0,0-9.6,2.57,4.07,4.07,0,0,0-6.11,5.33,5.4,5.4,0,0,0-.14,1.15,5,5,0,0,0,8.24,3.77c3.36,2.83,3.84,4.46,3.82,4.49-3.46,8.06-2.43,13.24-2.23,15.05.95-.05,3.95-.05,4.95-.05C26.49,42,29.12,36.1,29.24,29.43a5,5,0,0,0,3.34-2.84,3.88,3.88,0,1,0,1.68-7.38ZM28,31.54a4.91,4.91,0,0,0-1.9-2.23,4.49,4.49,0,0,0,.69.12A5.08,5.08,0,0,0,28,29.6l.2,0A18.38,18.38,0,0,1,28,31.54Z"/>
</svg>
