<?xml version="1.0" encoding="utf-8"?>
<!-- Generator: Adobe Illustrator 18.1.1, SVG Export Plug-In . SVG Version: 6.00 Build 0)  -->
<svg version="1.1" id="Layer_1" xmlns="http://www.w3.org/2000/svg" xmlns:xlink="http://www.w3.org/1999/xlink" x="0px" y="0px"
	 viewBox="0 0 50 50" enable-background="new 0 0 50 50" xml:space="preserve">
<path d="M38.4,38.2L31.9,27h2.6c0.4,0,0.9-0.2,1.1-0.6c0.2-0.4,0.2-0.9,0-1.2L30,15.3h1.6c0.4,0,0.9-0.2,1.1-0.6
	c0.2-0.4,0.2-0.9,0-1.2L26.1,2.1c-0.4-0.8-1.7-0.8-2.2,0l-6.6,11.4c-0.2,0.4-0.2,0.9,0,1.2c0.2,0.4,0.6,0.6,1.1,0.6H20l-5.7,9.8
	c-0.2,0.4-0.2,0.9,0,1.2c0.2,0.4,0.6,0.6,1.1,0.6h2.6l-6.5,11.2c-0.2,0.4-0.2,0.9,0,1.2c0.2,0.4,0.6,0.6,1.1,0.6h11.1v7.2
	c0,0.7,0.6,1.2,1.2,1.2s1.2-0.6,1.2-1.2v-7.2h11.1c0.4,0,0.9-0.2,1.1-0.6C38.6,39,38.6,38.6,38.4,38.2z M26.2,37.6v-6
	c0-0.7-0.6-1.2-1.2-1.2s-1.2,0.6-1.2,1.2v6h-8.9l6.5-11.2c0.2-0.4,0.2-0.9,0-1.2c-0.2-0.4-0.6-0.6-1.1-0.6h-2.6l5.7-9.8
	c0.2-0.4,0.2-0.9,0-1.2c-0.2-0.4-0.6-0.6-1.1-0.6h-1.6L25,5.2l4.4,7.6h-1.6c-0.4,0-0.9,0.2-1.1,0.6c-0.2,0.4-0.2,0.9,0,1.2l5.7,9.8
	h-2.6c-0.4,0-0.9,0.2-1.1,0.6c-0.2,0.4-0.2,0.9,0,1.2l6.5,11.2H26.2z"/>
</svg>
