<svg viewBox="0 0 50 50">
    <path d="M40.9,17.3v-.9A14.8,14.8,0,0,0,12.8,9.9a7.36,7.36,0,0,0-7.3,7.4A7.48,7.48,0,0,0,9,23.6H9A7.38,7.38,0,0,0,16.4,31a4.1,4.1,0,0,0,1.1-.1,9.94,9.94,0,0,0,2.6,5.8A8.35,8.35,0,0,0,24.9,39v8.3a1.22,1.22,0,0,0,1.2,1.2,1.29,1.29,0,0,0,1.2-1.2V39a8,8,0,0,0,4.5-2.2,10.39,10.39,0,0,0,2.6-6.2,7.51,7.51,0,0,0,2.6.5,7.38,7.38,0,0,0,7.4-7.4A7.1,7.1,0,0,0,40.9,17.3ZM19.9,30a.35.35,0,0,0,.2-.1,13.05,13.05,0,0,0,4.7,1.2v5.3a5.37,5.37,0,0,1-3-1.5A8.46,8.46,0,0,1,19.9,30Zm10.2,4.9a5,5,0,0,1-2.7,1.4V31a13.05,13.05,0,0,0,4.7-1.2A8.74,8.74,0,0,1,30.1,34.9Zm7-6.5a5.07,5.07,0,0,1-3.3-1.3,1.37,1.37,0,0,0-1.5-.2,12.3,12.3,0,0,1-6.2,1.7,11.72,11.72,0,0,1-5.5-1.3,1.27,1.27,0,0,0-.6-.1,2.35,2.35,0,0,0-.8.2,5.34,5.34,0,0,1-2.9,1,4.91,4.91,0,0,1-4.9-4.9v-.6a1.21,1.21,0,0,0-.7-1.3A4.68,4.68,0,0,1,8,17.3a4.91,4.91,0,0,1,4.9-4.9h.6a1.11,1.11,0,0,0,1.3-.8,12.32,12.32,0,0,1,23.7,4.7,8.64,8.64,0,0,1-.1,1.5,1.21,1.21,0,0,0,.7,1.3A4.79,4.79,0,0,1,42,23.5,4.91,4.91,0,0,1,37.1,28.4Z"/>
    <path d="M31.4,16.6a1.22,1.22,0,0,0-1.2,1.2,4.3,4.3,0,0,1-8.6,0,4.55,4.55,0,0,1,.5-2,1.27,1.27,0,0,0,0-1.2,1.45,1.45,0,0,0-1-.7,1.06,1.06,0,0,1-.9-1,1,1,0,0,1,1-1,1.22,1.22,0,0,0,1.2-1.2,1,1,0,0,0-1.1-1.1,3.54,3.54,0,0,0-3.5,3.5A3.36,3.36,0,0,0,19.4,16a5.66,5.66,0,0,0-.3,1.8,6.8,6.8,0,0,0,13.6,0A1.24,1.24,0,0,0,31.4,16.6Z"/>
</svg>
