<svg id="Layer_1" data-name="Layer 1" xmlns="http://www.w3.org/2000/svg" viewBox="0 0 50 50">
  <title>tree-medium</title>
  <path id="tree-medium" d="M40.23,17.17a4.52,4.52,0,0,0-3.92-4.47A6.43,6.43,0,0,0,25.4,10.54,4,4,0,0,0,22,12.82a3.54,3.54,0,0,0-5,3.23,3.53,3.53,0,0,0,1.63,3h0a3.22,3.22,0,0,0-5.43,2.34,3.24,3.24,0,0,0,2,3,4.16,4.16,0,0,0-.25,1.37,4.28,4.28,0,0,0,7.79,2.44,3,3,0,0,0,1.74.64c2.92,2.57,3.35,4,3.33,4.07-3.46,8.06-2.43,13.24-2.23,15.05.95-.05,3.95-.05,4.95-.05C26.62,42.18,29,36.48,29.22,30.08A3.52,3.52,0,0,0,34.57,28a5.13,5.13,0,0,0,4.26-7.55A4.52,4.52,0,0,0,40.23,17.17ZM28,31.54a4.91,4.91,0,0,0-1.9-2.23,3.14,3.14,0,0,0,2.16-.08A18.14,18.14,0,0,1,28,31.54Zm3.19-5.72a3.47,3.47,0,0,1-2.36,1.3,2.69,2.69,0,0,1-.4,0,3.5,3.5,0,0,1-2.19-.77,3.54,3.54,0,0,1-.56-5,.5.5,0,0,1,.78.62,2.53,2.53,0,0,0,3.95,3.16.5.5,0,1,1,.78.62Z"/>
</svg>
