<svg id="Layer_1" data-name="Layer 1" xmlns="http://www.w3.org/2000/svg" viewBox="0 0 50 50">
  <title>tree3</title>
  <path d="M44.88,16h-.22A6,6,0,0,0,36.4,8.53a7.58,7.58,0,0,0-5.83-2.74,7.72,7.72,0,0,0-2,.27A6.71,6.71,0,0,0,15.83,7.64a6,6,0,0,0-4.92,4.68,4.59,4.59,0,0,0-7,3.9A4.93,4.93,0,0,0,4,17.31a3.91,3.91,0,0,0-.49,0,3.53,3.53,0,1,0,3.15,5.13,7.23,7.23,0,0,0,11.39,4.4,7.26,7.26,0,0,0,2.25.36A7.13,7.13,0,0,0,22.05,27c5,3.7,5.66,5.88,5.64,5.92-3.46,8.06-2.43,13.24-2.23,15.05.95-.05,3.95-.05,4.95-.05-4-6-1.18-12-1.16-18.83a7.06,7.06,0,0,0,2.49-1.22,7.23,7.23,0,0,0,13.17-1.54,5.12,5.12,0,0,0,0-10.24Zm-22,8.35h0a5.15,5.15,0,0,1-5-4.08,5,5,0,0,1-.77.07,4.56,4.56,0,0,1-4.34-3.26,4.54,4.54,0,0,1,3.07-5.63.5.5,0,0,1,.62.34.49.49,0,0,1-.34.62,3.53,3.53,0,0,0,1.65,6.85s0-.06,0-.1a.5.5,0,0,1,.5-.49h0a.5.5,0,0,1,.5.5,4.15,4.15,0,0,0,4.12,4.18h0a4.12,4.12,0,0,0,3.22-1.53.49.49,0,0,1,.7-.07.5.5,0,0,1,.08.7A5.14,5.14,0,0,1,22.87,24.39ZM28,31.54a4.91,4.91,0,0,0-1.9-2.23,3.14,3.14,0,0,0,2.16-.08A18.14,18.14,0,0,1,28,31.54Z"/>
</svg>
