<svg id="Layer_1" data-name="Layer 1" xmlns="http://www.w3.org/2000/svg" viewBox="0 0 990.51 826.15">
  <defs>
    <style>
      .cls-1 {
        fill: #fff;
      }

      .cls-2 {
        fill: #3c485e;
      }
    </style>
  </defs>
  <title>logo</title>
  <path class="cls-1" d="M430,246.35c-22.55-12.4-10.81-37-10.81-37a27.25,27.25,0,0,1,10.74,37m-23.12-3.31a27.25,27.25,0,0,0-10.74-37s-11.75,24.58,10.81,37M338.3,304.52a27.25,27.25,0,0,0-21.18-32.19s-4,26.95,21.23,32.16M300.54,387.9a27.25,27.25,0,0,0-29.34-25s3.73,27,29.38,24.93M360.32,279.2A27.26,27.26,0,0,0,339.14,247s-4,27,21.23,32.16m70.2,56.89a27.25,27.25,0,0,0-25.16-29.19S405,334.11,430.62,336m94.8,2.27a27.24,27.24,0,0,0,27.41-27.08s-27.21,1.39-27.36,27.13m-44.16-103.6A27.25,27.25,0,0,0,495.63,199s-24.39,12.15-14.26,35.81m46.75,29.83a27.25,27.25,0,0,0,22-31.64s-26.5,6.35-21.94,31.68m28.57-12.15a27.25,27.25,0,0,0,22-31.64s-26.5,6.35-22,31.68m41.33,25.18a27.26,27.26,0,0,0,25.12-29.23s-27,3.61-25.07,29.27m22,30.79a27.26,27.26,0,0,0,25.12-29.23s-27,3.61-25.07,29.27m31.18,78.31a27.25,27.25,0,0,0,30.93-23s-27.14-2.42-30.89,23.05m-141.56-23a38.84,38.84,0,0,0-32.48,17.55,38.83,38.83,0,0,0-71.31,21.29c0,38.68,71.65,88.4,71.65,88.4s71-48.81,71-88.4A38.84,38.84,0,0,0,509.86,363.93ZM633.18,480.29m-3.31-125.71-63.08,54.31c2.05-1.16,4.08-2.2,6.08-3.26,3.33-1.71,6.56-3.43,9.77-5.22a124.28,124.28,0,0,0,33.88-28,172.12,172.12,0,0,0,13.35-17.86,171.6,171.6,0,0,1-12,19,129.44,129.44,0,0,1-14.76,17.1A132.21,132.21,0,0,1,585.5,405c-3.15,2.11-6.35,4.16-9.51,6.11l-.43.27a100.69,100.69,0,0,0,91.71-100.27S568.94,316.74,566.79,408.89Zm27.85-100.56M562.3,334l8.12-5.45c2.9-2,5.76-4,8.56-6.13a111.58,111.58,0,0,0,15.66-14.06,112.8,112.8,0,0,1-14.52,15.45c-2.63,2.37-5.34,4.66-8.08,6.9l-7,5.59a54.49,54.49,0,0,0,51.59-54.42S564,284.87,562.3,334Zm13.63-63.07,20-32s-52,12.55-44,62c1.51-2.1,3-4.35,4.4-6.58,1.85-2.85,3.72-5.71,5.68-8.51a91.51,91.51,0,0,1,6.28-8.12,35.22,35.22,0,0,1,7.65-6.78,35.06,35.06,0,0,0-6.95,7.34,90.53,90.53,0,0,0-5.46,8.52c-1.69,2.93-3.28,5.92-4.87,8.92-1,1.93-2.06,3.87-3.16,5.81A54.5,54.5,0,0,0,595.94,238.89Zm-90.48,15.49M522,219.76s-49.82,15.94-39.75,63.47c1.22-1.77,2.4-3.61,3.6-5.43,1.85-2.86,3.72-5.72,5.68-8.52a94.52,94.52,0,0,1,6.28-8.12,35.7,35.7,0,0,1,7.64-6.78,34.8,34.8,0,0,0-6.94,7.35,91.36,91.36,0,0,0-5.47,8.52c-1.69,2.93-3.28,5.91-4.87,8.91-1.15,2.15-2.27,4.31-3.52,6.46A54.5,54.5,0,0,0,522,219.76Zm-19,88-27.7,26.91c1.81-1.93,3.56-4,5.33-6.12,2.19-2.6,4.4-5.21,6.69-7.74a90.42,90.42,0,0,1,7.25-7.27,35.57,35.57,0,0,1,8.43-5.78,35.24,35.24,0,0,0-7.81,6.42,90.85,90.85,0,0,0-6.48,7.78c-2,2.69-4,5.46-6,8.24-1.44,2-2.84,4.05-4.38,6.07a54.49,54.49,0,0,0,51.29-54.4S476.56,284.91,475.31,334.65ZM332.6,480.29m60.59,83.85a422.58,422.58,0,0,1-60.59-83.85,417.36,417.36,0,0,0,66.09,78.34,362.42,362.42,0,0,0,78.93,55.88c-6.29-197.22-218.24-209.35-218.24-209.35,0,115.25,89.44,209.6,202.7,217.46A376.77,376.77,0,0,1,393.19,564.14Zm84.72,50.52,0,0a422.6,422.6,0,0,0,41.56-24.55,472.29,472.29,0,0,0,42.15-31.77,451.78,451.78,0,0,0,38.43-36.49,315.71,315.71,0,0,0,33.1-41.58A317.71,317.71,0,0,1,603,524.42a456.49,456.49,0,0,1-36.12,39.69,482.42,482.42,0,0,1-40.55,35.48q-15.58,12.15-32.27,22.94c112.6-8.52,201.3-102.59,201.3-217.37C695.38,405.16,484.07,417.3,477.91,614.66ZM382.08,411.09c-3.16-1.95-6.36-4-9.5-6.11a131.66,131.66,0,0,1-17.67-14.32,130.19,130.19,0,0,1-14.76-17.1,172.71,172.71,0,0,1-11.95-19h0s33.93,37.81,57,51.05c1.25.72,2.57,1.35,3.86,2-3-90.51-99.95-96.08-99.95-96.08a100.17,100.17,0,0,0,93.7,100Zm63.74-118.83M463,317.52c-2.24-2.56-4.48-5.14-6.64-7.79a94.54,94.54,0,0,1-6.1-8.26,35.88,35.88,0,0,1-4.43-9.21A35.17,35.17,0,0,0,451,301a91,91,0,0,0,6.7,7.58c2.36,2.43,4.8,4.77,7.25,7.13,1.44,1.39,2.89,2.77,4.32,4.21,2.27-49.52-50.34-56.47-50.34-56.47a54.5,54.5,0,0,0,47.5,58.09C465.3,320.16,464.14,318.84,463,317.52Zm-70-46.18,17.17,25.26c-2.24-2.56-4.48-5.14-6.64-7.79a93,93,0,0,1-6.09-8.26,35.58,35.58,0,0,1-4.44-9.21,35.3,35.3,0,0,0,5.17,8.69,89.3,89.3,0,0,0,6.71,7.58c2.35,2.43,4.79,4.78,7.24,7.13,1.2,1.16,2.41,2.31,3.61,3.49,1.83-47.14-48.71-55.42-48.71-55.42a54.5,54.5,0,0,0,48.33,59.89C413.7,300.65,411.9,298.63,410.14,296.6Zm5.24,6.18v0h0ZM380,318.87m15.42,26.35c-2.06-2.7-4.12-5.42-6.1-8.22a92.51,92.51,0,0,1-5.52-8.65,35.45,35.45,0,0,1-3.8-9.48,34.92,34.92,0,0,0,4.57,9,88.5,88.5,0,0,0,6.17,8c2.19,2.58,4.46,5.09,6.75,7.6,1.62,1.79,3.25,3.55,4.83,5.43,3.27-51.09-50.6-57.87-50.6-57.87A54.5,54.5,0,0,0,398,348.63C397.1,347.49,396.24,346.36,395.38,345.22Zm56.68-108.74,9.13,29.14c-1.4-3.1-2.8-6.21-4.1-9.38a94,94,0,0,1-3.45-9.66,35.84,35.84,0,0,1-1.58-10.1,35.21,35.21,0,0,0,2.44,9.81,92,92,0,0,0,4.22,9.2c1.56,3,3.21,5.95,4.88,8.91s3.18,5.6,4.61,8.65a54.5,54.5,0,0,0-21.7-73.6S424.74,245,463.4,270.57C462.69,268.93,461.93,267.27,461.19,265.62Z"/>
  <g id="words">
    <g id="one-tree">
      <path class="cls-2" d="M309.27,163.58a18.31,18.31,0,0,1-1.54-14.64,19,19,0,0,1,9.32-11.67,19.53,19.53,0,0,1,26.41,7.5,18.36,18.36,0,0,1,1.62,14.73,19.71,19.71,0,0,1-23.21,13.66A18.34,18.34,0,0,1,309.27,163.58Zm5-2.7a13.48,13.48,0,0,0,8.59,6.86,13.78,13.78,0,0,0,17-9.54,14.49,14.49,0,0,0-9.71-17.51A13.92,13.92,0,0,0,313,150.27,13.46,13.46,0,0,0,314.27,160.88Z"/>
      <path class="cls-2" d="M371.25,153.35l-11.82-38.08,34.44,19.13-7.69-24.77,5.38-1.67,11.74,37.82-34.42-19.06,7.75,25Z"/>
      <path class="cls-2" d="M441.05,105.2,426.2,107l1.1,8.9,14.42-1.79.65,5.26L428,121.19l1.53,12.38,14.85-1.84L445,137l-20.44,2.53-4.59-37,20.44-2.54Z"/>
      <path class="cls-2" d="M509.45,107l-4.07,31.77-5.58-.71,4.06-31.78-8.51-1.09L496,100l22.59,2.9-.67,5.25Z"/>
      <path class="cls-2" d="M548.58,131.86l6.77,18.46-6.63-1.89-6.08-17.61-1-.27-4.18,14.69-5.42-1.54,10.21-35.9,6.35,1.8q7.11,2,9.52,5.6a10.23,10.23,0,0,1,1.25,8.85,10.61,10.61,0,0,1-4,5.94A10.2,10.2,0,0,1,548.58,131.86Zm-5.57-6,1.72.49q7.69,2.19,9.37-3.69,1.56-5.52-5.92-7.64l-1.93-.55Z"/>
      <path class="cls-2" d="M605.34,136.89l-13.58-6.29L588,138.74l13.18,6.11-2.23,4.8-13.18-6.11-5.24,11.32,13.57,6.29L591.87,166l-18.69-8.66,15.69-33.87,18.69,8.66Z"/>
      <path class="cls-2" d="M645,161l-12.46-8.28-5,7.47,12.1,8-2.93,4.41-12.1-8L617.71,175l12.46,8.28-2.93,4.41-17.15-11.4,20.65-31.09,17.16,11.4Z"/>
    </g>
    <g id="one-life">
      <path class="cls-2" d="M315,661.59a18.27,18.27,0,0,1,11.35-9.37,19,19,0,0,1,14.88,1.34,19.52,19.52,0,0,1,8.32,26.16,18.37,18.37,0,0,1-11.39,9.48,19.71,19.71,0,0,1-24.2-11.81A18.33,18.33,0,0,1,315,661.59Zm5,2.68a13.83,13.83,0,0,0,16.33,19.83,14.48,14.48,0,0,0,9.24-17.76,13.91,13.91,0,0,0-17.45-9A13.46,13.46,0,0,0,320,664.27Z"/>
      <path class="cls-2" d="M365.57,705.7l10.95-38.33,18.35,34.87L402,677.3l5.42,1.54-10.89,38.08-18.36-34.8L371,707.25Z"/>
      <path class="cls-2" d="M448.25,689.78l-14.88-1.59-.95,8.91,14.44,1.55-.56,5.27-14.45-1.55-1.33,12.4,14.88,1.6-.57,5.26-20.48-2.2,4-37.11,20.48,2.2Z"/>
      <path class="cls-2" d="M503.08,682.66l4.15,31.76L518.11,713l.68,5.25-16.46,2.15-4.84-37Z"/>
      <path class="cls-2" d="M537.48,676.06l9,36.22L541,713.64l-9-36.23Z"/>
      <path class="cls-2" d="M577.86,668.13l-12.16,4.62,3.19,8.38,11.73-4.45,1.88,5-11.73,4.45,6.31,16.61-5.27,2L558.56,669.8,576,663.18Z"/>
      <path class="cls-2" d="M614,649.68l-13.09,7.25,4.35,7.85,12.71-7,2.56,4.63-12.71,7,6.05,10.91,13.09-7.25,2.56,4.63-18,10L593.37,655l18-10Z"/>
    </g>
  </g>
</svg>
