<svg xmlns="http://www.w3.org/2000/svg" width="840" height="840" viewBox="0 0 840 840">
  <g>
    <path d="M422.21,221.69A107.27,107.27,0,0,0,336.91,394L426,276.79l-9.51.09h-9.61a152.27,152.27,0,0,0-26.55,2,28.65,28.65,0,0,0-10.9,4.49c-3.64,2.51-8.05,7.79-11,13-.34.61-.78,1.56-1.38,2.77L351.79,298l8.74-33.73H472.21L383.54,382.93a114.37,114.37,0,0,1,12.71-.6c3.64,0,9.09.17,16.35.6l15.75.95c5.71.35,10.55.52,14.18.52,8.14,0,13.41-.6,18.69-2.25a39.86,39.86,0,0,0,11.42-5.53,53.91,53.91,0,0,0,15.92-18.17c.34-.69.95-1.73,1.64-3.11l4.67,1.21a67.92,67.92,0,0,1-4.67,13.32c-4.76,10.64-10.12,17.82-17.56,23.27a43.22,43.22,0,0,1-25.95,8.56h-1.56c-7.35,0-13.06-.6-30.71-3.28-17.91-2.77-27.08-3.72-36.07-3.72a106.1,106.1,0,0,0-17.48,1.38c-7.7,1.3-10.72,2.16-17.73,5.36a107.24,107.24,0,1,0,79.07-179.75" style="fill: #fff"/>
    <path d="M221.6,510.35H139.42L129.3,532.67a66.33,66.33,0,0,1,7.61-3.63,79.27,79.27,0,0,1,14.79-4.15,91.22,91.22,0,0,1,14.71-1.3c2.94-.09,5.62-.09,8.13-.09h12.2l-63.93,91.35h90.4L223.59,591a86.68,86.68,0,0,1-7.7,4.06A73.29,73.29,0,0,1,199,600.15a106.38,106.38,0,0,1-16.43,1.47c-2.17.09-4.94.09-8.4.09h-16l63.41-91.35" style="fill: #fff"/>
    <path d="M493.23,614.85a13.75,13.75,0,0,1-3.2-3.72,15.65,15.65,0,0,1-1.65-3.2,26.47,26.47,0,0,1-1.47-9.17V535.87l.09-6.14c0-7,.17-8.91,1.12-11.76a12.53,12.53,0,0,1,1.47-3.29,13.76,13.76,0,0,1,3.9-4.33H459.92a15.24,15.24,0,0,1,3.9,4.16,12.39,12.39,0,0,1,1.64,3.37c.78,2.51,1,5,1,11.25.08,3.2.08,5.27.08,6.31V598a31.43,31.43,0,0,1-1.64,10.12,21,21,0,0,1-1.64,3,36.9,36.9,0,0,1-3.2,3.72h33.13" style="fill: #fff"/>
    <path d="M598.16,511.22a46.37,46.37,0,0,0-6.4-1.73,83.91,83.91,0,0,0-18.34-1.82c-11.25,0-20.94,1.73-29.76,5.54a59,59,0,0,0-14.36,8.48c-12.89,10.38-19.9,25.43-19.9,42.73,0,16.78,6.75,31.32,19,41.09,10.21,8,23.36,12,39.11,12a96,96,0,0,0,29.32-4.68,15.6,15.6,0,0,0,1.64-.51v-19a50.42,50.42,0,0,1-4.84,3.12,49,49,0,0,1-6.4,3.2A45.09,45.09,0,0,1,569,603.52c-10.82,0-20.07-3.89-26.91-11.24s-10.46-17.48-10.46-29c0-10.9,3.46-21.11,9.42-28.2a36,36,0,0,1,9.52-7.7,41.26,41.26,0,0,1,20.24-5,49.64,49.64,0,0,1,18.77,3.72,39.18,39.18,0,0,1,8.57,4.76V511.22" style="fill: #fff"/>
    <path d="M689.77,567.45v25.43a79.8,79.8,0,0,1-.43,10.64,18.2,18.2,0,0,1-1.13,4.5,15,15,0,0,1-3.72,5.45c-.35.35-.86.78-1.47,1.38h33.39a23.66,23.66,0,0,1-2.85-3.28,17,17,0,0,1-1.91-3.38c-1-2.51-1.29-4.32-1.38-9.43-.09-3.11-.09-4.93-.09-5.45l.09-57.44v-6.22a39.81,39.81,0,0,1,1.21-11.08,11.77,11.77,0,0,1,1.64-3.8,12.81,12.81,0,0,1,4.07-4.42H683.11a13.38,13.38,0,0,1,3.8,4.24,13.68,13.68,0,0,1,1.73,3.64c.87,2.42,1.13,5.53,1.13,11v25.44H643V535.53c0-5.71.08-9.52.26-12.37a16.51,16.51,0,0,1,.86-4.5,20.43,20.43,0,0,1,4.33-7.18l1.12-1.13H616.06a35,35,0,0,1,3.47,4,23.18,23.18,0,0,1,1.81,3.55c.87,2.68,1,4.15,1.13,11.07l.08,6.66v57.18a80.92,80.92,0,0,1-.43,11,17.9,17.9,0,0,1-1,4.15,15.36,15.36,0,0,1-4,5.89c-.26.26-.69.51-1.21,1H649a16.57,16.57,0,0,1-2.76-3.46,15.88,15.88,0,0,1-1.73-3.28c-1-2.69-1.39-4.68-1.48-9.09-.08-2.25-.08-4.32-.08-6.31V567.45h46.8" style="fill: #fff"/>
    <path d="M383,593.4c0,1.9.09,3.63.09,5.19.08,4.85.43,7.35,1.38,9.69a16.58,16.58,0,0,0,1.73,3.2,37.15,37.15,0,0,0,2.94,3.37H355.94a29.09,29.09,0,0,0,3.46-3.63,12.65,12.65,0,0,0,1.82-3.37c.86-2.25,1.21-5.11,1.21-10v-68.6c0-5.53-.35-8.82-1-11.16a17.36,17.36,0,0,0-1.81-3.8,20.25,20.25,0,0,0-3.55-3.9h27c3.29,0,6.57,0,9.69.09,8.3.26,13.15.78,17.82,1.82a34.49,34.49,0,0,1,17,9.43,24.38,24.38,0,0,1,7.09,17.13,25.77,25.77,0,0,1-9.51,20,47.62,47.62,0,0,1-12.89,7.44,41.63,41.63,0,0,1-4.67,1.64l16.26,19c1.9,2.34,4.5,5.19,7.61,8.57,4.85,5.27,8.13,8.65,11.85,12.11,1.56,1.47,3,2.85,4.5,4.06a40.2,40.2,0,0,0,3.81,3.2H438.47c-1.9,0-3.72,0-5.45-.08a22.88,22.88,0,0,1-10.38-2.42,49.58,49.58,0,0,1-10.81-8.57c-1.13-1.21-2.86-3.11-5-5.71-2-2.25-3.46-3.89-4.41-5L383,569.87V593.4Zm1.73-32.27a35,35,0,0,0,5.45-.52,33.56,33.56,0,0,0,13.15-4.23,19.28,19.28,0,0,0,4.93-4c2.68-2.94,4.06-7,4.06-11.77,0-5.45-1.81-9.77-5.45-12.8a19.09,19.09,0,0,0-7-3.81,54,54,0,0,0-14.1-1.73c-.87,0-1.39,0-2.77.09v38.67c.86,0,1.21.08,1.73.08" style="fill: #fff"/>
    <path d="M338.9,510.35H305.6a12,12,0,0,1,3.8,4.07A12.13,12.13,0,0,1,311,518c.69,2.51.86,5,.86,10.9v39.7c0,8.57-.17,13.58-.86,17.74a21.53,21.53,0,0,1-2.68,7.7c-2.51,4.23-7.27,7.52-12.89,8.91a28.35,28.35,0,0,1-7.35.86c-9,0-16.7-3.37-20.42-8.82-2.85-4.33-3.72-8.39-3.81-19.12l-.17-8.56V535.79c0-6.14.09-9.09.35-12.2a17.65,17.65,0,0,1,.78-4.76,22.81,22.81,0,0,1,4.23-7.61,7.71,7.71,0,0,0,.78-.86H235.87a14,14,0,0,1,3.81,4.23,17.44,17.44,0,0,1,1.47,3.64,28.75,28.75,0,0,1,.69,4.76v6.48l.09,6.06v29.93c0,11.07,0,13.93.43,18.42a33.88,33.88,0,0,0,7.27,19.21c8,9.95,20.67,15.22,36.85,15.22a61.64,61.64,0,0,0,21-3.37,38.28,38.28,0,0,0,15.57-10.38c4.84-5.36,7.61-12,8.48-20.24.43-4.76.69-10.47.69-18.69v-30l-.09-6v-1.22a37.4,37.4,0,0,1,.87-9.51,12.91,12.91,0,0,1,1.82-4.24,14.36,14.36,0,0,1,4.06-4.32" style="fill: #fff"/>
  </g>
</svg>
