<svg id="Layer_1" data-name="Layer 1" xmlns="http://www.w3.org/2000/svg" viewBox="0 0 840 840" fill="white"><title>FINAL-black-outline-heart</title><path d="M247.59,209.81A25.55,25.55,0,0,1,272.47,236c-.26,6.21-2.77,12.35-8.61,17.9-6.53,6.2-13.44,7.8-18.43,7.77a24.52,24.52,0,0,1-17.72-7.79,26.82,26.82,0,0,1-7.16-18.32c.12-4.58,1.83-11.46,8.77-18.05C234.75,212.38,240.87,209.73,247.59,209.81Zm-16.09,25.4A14.71,14.71,0,0,0,235.9,246a14.33,14.33,0,0,0,10.62,4.81,14.13,14.13,0,0,0,10.19-4.21,14.54,14.54,0,0,0,4.9-10.31,14.38,14.38,0,0,0-4.36-10.66,15.13,15.13,0,0,0-10.46-5A15.4,15.4,0,0,0,236.3,225,14.74,14.74,0,0,0,231.5,235.21Z"/><path d="M297.26,222.61l-19.48-39.43a2,2,0,0,1,.92-2.71l6-3a2,2,0,0,1,1.7,0l31.15,13.62a2,2,0,0,0,2.62-2.75l-10.37-21a2,2,0,0,1,.92-2.71l6.32-3.12a2,2,0,0,1,2.71.92l19.48,39.43a2,2,0,0,1-.92,2.71l-6,3a2,2,0,0,1-1.71,0L299.4,193.86a2,2,0,0,0-2.62,2.74L307.2,217.7a2,2,0,0,1-.92,2.71L300,223.52A2,2,0,0,1,297.26,222.61Z"/><path d="M378.15,154.9l-11.77,2.42a2,2,0,0,0-1.57,2.39l1.06,5.14a2,2,0,0,0,2.39,1.57l11-2.26a2,2,0,0,1,2.39,1.57l1.07,5.21a2,2,0,0,1-1.57,2.39l-11,2.26a2,2,0,0,0-1.57,2.39l1.33,6.48a2,2,0,0,0,2.39,1.57L384,183.6a2,2,0,0,1,2.39,1.57l1.07,5.21a2,2,0,0,1-1.57,2.39l-22.63,4.65a2,2,0,0,1-2.39-1.57l-8.86-43.08a2,2,0,0,1,1.57-2.39l22.63-4.65a2,2,0,0,1,2.39,1.57l1.07,5.21A2,2,0,0,1,378.15,154.9Z"/><path d="M459.93,156.88l-4.47,34.33A2,2,0,0,1,453.2,193l-7-.91a2,2,0,0,1-1.74-2.26l4.47-34.33a2,2,0,0,0-1.74-2.26l-6.35-.83a2,2,0,0,1-1.74-2.26l.69-5.28a2,2,0,0,1,2.26-1.74l27.69,3.6a2,2,0,0,1,1.74,2.26l-.69,5.28a2,2,0,0,1-2.26,1.74l-6.35-.83A2,2,0,0,0,459.93,156.88Z"/><path d="M515,159.37c5.75,2.1,8.64,5.31,10.06,8.13a14.48,14.48,0,0,1,.24,11.51,13.14,13.14,0,0,1-6.88,7.91,15.16,15.16,0,0,1-4.91,1.2,2,2,0,0,0-1.84,2.6l5.14,17a2,2,0,0,1-2.63,2.48l-7.92-2.9a2,2,0,0,1-1.26-1.4L501.26,191a2,2,0,0,0-3.85-.19l-3.57,9.76a2,2,0,0,1-2.59,1.2l-6.62-2.42a2,2,0,0,1-1.2-2.59l15.11-41.31a2,2,0,0,1,2.59-1.2ZM502.84,176a2,2,0,0,0,1.2,2.59l.47.17c1.89.69,4.54,1.43,6.94.31a6.47,6.47,0,0,0,3.3-3.78,5.83,5.83,0,0,0-.41-5.37c-1.22-1.9-3.88-3-5.23-3.52l-.54-.2a2,2,0,0,0-2.59,1.2Z"/><path d="M575.8,201.79l-10.07-6.56a2,2,0,0,0-2.8.59l-2.87,4.4a2,2,0,0,0,.59,2.8l9.4,6.13a2,2,0,0,1,.59,2.8l-2.91,4.46a2,2,0,0,1-2.8.59l-9.4-6.13a2,2,0,0,0-2.8.59L549.14,217a2,2,0,0,0,.59,2.8l10.07,6.56a2,2,0,0,1,.59,2.8l-2.91,4.46a2,2,0,0,1-2.8.59l-19.36-12.62a2,2,0,0,1-.59-2.8l24-36.85a2,2,0,0,1,2.8-.59l19.36,12.62a2,2,0,0,1,.59,2.8l-2.91,4.46A2,2,0,0,1,575.8,201.79Z"/><path d="M617.63,239.13l-8.48-8.51a2,2,0,0,0-2.86,0l-3.72,3.7a2,2,0,0,0,0,2.86l7.92,8a2,2,0,0,1,0,2.86l-3.77,3.75a2,2,0,0,1-2.86,0l-7.92-8a2,2,0,0,0-2.86,0l-4.69,4.67a2,2,0,0,0,0,2.86l8.48,8.51a2,2,0,0,1,0,2.86l-3.77,3.75a2,2,0,0,1-2.86,0L573.93,250a2,2,0,0,1,0-2.86l31.16-31a2,2,0,0,1,2.86,0l16.3,16.37a2,2,0,0,1,0,2.86l-3.77,3.75A2,2,0,0,1,617.63,239.13Z"/><path d="M281.24,613.18a25.55,25.55,0,0,1-23.18,27.74c-6.2.45-12.59-1.33-18.78-6.5C232.38,628.65,230,622,229.44,617a24.52,24.52,0,0,1,5.7-18.5,26.81,26.81,0,0,1,17.37-9.22c4.56-.41,11.6.49,18.95,6.64C277.21,600.71,280.54,606.5,281.24,613.18Zm-27.09-13.06a14.71,14.71,0,0,0-10.23,5.62,14.33,14.33,0,0,0-3.56,11.1,14.13,14.13,0,0,0,5.36,9.64,14.54,14.54,0,0,0,10.81,3.68,14.38,14.38,0,0,0,10.08-5.55,15.14,15.14,0,0,0,3.72-11,15.41,15.41,0,0,0-5.49-9.94A14.74,14.74,0,0,0,254.15,600.12Z"/><path d="M288.06,664.74l17.36-40.36a2,2,0,0,1,2.69-1.07l6.11,2.63a2,2,0,0,1,1.15,1.29l9.81,32.46a2,2,0,0,0,3.84.22l9.21-21.41a2,2,0,0,1,2.69-1.07l6.43,2.76a2,2,0,0,1,1.07,2.69l-17.36,40.36a2,2,0,0,1-2.69,1.07l-6.11-2.63a2,2,0,0,1-1.15-1.29l-9.76-32.56a2,2,0,0,0-3.84-.22l-9.26,21.52a2,2,0,0,1-2.69,1.07l-6.42-2.76A2,2,0,0,1,288.06,664.74Z"/><path d="M392.79,658.74,381,656.84a2,2,0,0,0-2.35,1.7l-.82,5.13a2,2,0,0,0,1.7,2.35l11,1.77a2,2,0,0,1,1.7,2.35l-.83,5.2a2,2,0,0,1-2.35,1.7l-11-1.77a2,2,0,0,0-2.35,1.7l-1,6.48a2,2,0,0,0,1.7,2.35l11.81,1.9a2,2,0,0,1,1.7,2.35l-.84,5.2a2,2,0,0,1-2.35,1.7l-22.76-3.66a2,2,0,0,1-1.7-2.35l7-43.38a2,2,0,0,1,2.35-1.7l22.76,3.66a2,2,0,0,1,1.7,2.35l-.83,5.2A2,2,0,0,1,392.79,658.74Z"/><path d="M456.61,649.62,462,683.76a2,2,0,0,0,2.34,1.7l10.68-1.7a2,2,0,0,1,2.34,1.7l.83,5.2a2,2,0,0,1-1.7,2.34l-21.63,3.44a2,2,0,0,1-2.34-1.7l-6.9-43.39a2,2,0,0,1,1.7-2.34l6.91-1.1A2,2,0,0,1,456.61,649.62Z"/><path d="M499.43,638.57l14.06,41.62a2,2,0,0,1-1.28,2.59L505.58,685a2,2,0,0,1-2.59-1.28l-14.06-41.62a2,2,0,0,1,1.28-2.59l6.62-2.24A2,2,0,0,1,499.43,638.57Z"/><path d="M545.37,624.74l-10.07,5.48a2,2,0,0,0-.82,2.78l2.48,4.56a2,2,0,0,0,2.78.82l9.05-4.93a2,2,0,0,1,2.78.82l2.52,4.63a2,2,0,0,1-.82,2.78l-9.05,4.92a2,2,0,0,0-.82,2.78l7.61,14a2,2,0,0,1-.82,2.78L544,669.48a2,2,0,0,1-2.78-.82l-21-38.59a2,2,0,0,1,.82-2.78l19.81-10.77a2,2,0,0,1,2.78.82l2.52,4.63A2,2,0,0,1,545.37,624.74Z"/><path d="M583.64,595.7l-9.17,7.68a2,2,0,0,0-.25,2.88l3.34,4a2,2,0,0,0,2.88.25l8.56-7.17a2,2,0,0,1,2.88.25l3.38,4a2,2,0,0,1-.25,2.88l-8.56,7.17a2,2,0,0,0-.25,2.88l4.21,5a2,2,0,0,0,2.88.25l9.17-7.68a2,2,0,0,1,2.88.25l3.38,4a2,2,0,0,1-.25,2.88l-17.67,14.8a2,2,0,0,1-2.88-.25l-28.21-33.67a2,2,0,0,1,.25-2.88l17.67-14.8a2,2,0,0,1,2.88.25l3.38,4A2,2,0,0,1,583.64,595.7Z"/><path d="M381.47,284.4c-18.83-10.35-9-30.88-9-30.88a22.75,22.75,0,0,1,9,30.9"/><path d="M362.17,281.64c-18.83-10.35-9-30.88-9-30.88a22.75,22.75,0,0,1,9,30.9"/><path d="M304.93,332.94c-21-4.34-17.73-26.85-17.73-26.85A22.75,22.75,0,0,1,304.88,333"/><path d="M273.4,402.54c-21.42,1.72-24.53-20.81-24.53-20.81a22.75,22.75,0,0,1,24.5,20.86"/><path d="M323.31,311.8c-21-4.34-17.73-26.85-17.73-26.85a22.75,22.75,0,0,1,17.68,26.88"/><path d="M382,359.26c-21.43-1.59-21-24.33-21-24.33a22.75,22.75,0,0,1,21,24.37"/><path d="M461.14,361.19c.13-21.49,22.85-22.65,22.85-22.65a22.75,22.75,0,0,1-22.89,22.61"/><path d="M424.33,274.72c-8.46-19.75,11.9-29.89,11.9-29.89a22.75,22.75,0,0,1-12,29.87"/><path d="M463.4,299.66c-3.8-21.15,18.32-26.45,18.32-26.45a22.75,22.75,0,0,1-18.37,26.42"/><path d="M487.3,289.55c-3.8-21.15,18.32-26.45,18.32-26.45a22.75,22.75,0,0,1-18.37,26.42"/><path d="M521.85,310.61c-1.62-21.42,20.92-24.44,20.92-24.44a22.75,22.75,0,0,1-21,24.4"/><path d="M540.23,336.35c-1.62-21.42,20.92-24.44,20.92-24.44a22.75,22.75,0,0,1-21,24.4"/><path d="M566.3,401.77c3.13-21.26,25.79-19.24,25.79-19.24a22.75,22.75,0,0,1-25.82,19.19"/><path d="M421.24,483.16a3.49,3.49,0,0,1-2-.62C417.07,481,366,445.22,366,415.77a31.57,31.57,0,0,1,55-21.11,31.57,31.57,0,0,1,55,21.11c0,30.11-50.66,65.29-52.82,66.77A3.5,3.5,0,0,1,421.24,483.16Zm-23.72-92A24.6,24.6,0,0,0,373,415.77c0,10.44,8.56,24.22,24.76,39.84a237.83,237.83,0,0,0,23.54,19.74,227.46,227.46,0,0,0,23.28-19.49c16-15.52,24.52-29.38,24.52-40.09a24.57,24.57,0,0,0-45.12-13.47,3.5,3.5,0,0,1-2.93,1.58h0a3.5,3.5,0,0,1-2.93-1.58A24.52,24.52,0,0,0,397.53,391.2Z"/><path d="M495.64,420.1c1.71-1,3.4-1.83,5.07-2.72,2.78-1.43,5.48-2.86,8.16-4.36a103.72,103.72,0,0,0,28.28-23.35,142.9,142.9,0,0,0,11.15-14.91,143.73,143.73,0,0,1-10,15.85A108.67,108.67,0,0,1,526,404.88a110.74,110.74,0,0,1-14.75,12c-2.62,1.76-5.3,3.47-7.94,5.1l-.36.23a84.06,84.06,0,0,0,76.56-83.72S497.44,343.17,495.64,420.1Z"/><path d="M491.89,357.56l6.78-4.55c2.42-1.65,4.81-3.35,7.14-5.12a93.63,93.63,0,0,0,13.08-11.74A94.35,94.35,0,0,1,506.77,349c-2.2,2-4.46,3.89-6.75,5.76l-5.82,4.67A45.5,45.5,0,0,0,537.28,314S493.32,316.56,491.89,357.56Z"/><path d="M520,278.18s-43.38,10.47-36.76,51.76c1.26-1.75,2.47-3.64,3.68-5.49,1.55-2.38,3.1-4.77,4.74-7.11a77.26,77.26,0,0,1,5.24-6.78,29.69,29.69,0,0,1,6.38-5.66,29.32,29.32,0,0,0-5.8,6.13,76.09,76.09,0,0,0-4.56,7.11c-1.41,2.44-2.74,4.94-4.07,7.44-.87,1.61-1.71,3.23-2.63,4.85A45.5,45.5,0,0,0,520,278.18Z"/><path d="M458.26,262.21s-41.59,13.31-33.19,53c1-1.47,2-3,3-4.54,1.55-2.38,3.1-4.77,4.74-7.11a77.28,77.28,0,0,1,5.24-6.78,29.68,29.68,0,0,1,6.38-5.66,29.3,29.3,0,0,0-5.8,6.13,76.15,76.15,0,0,0-4.56,7.11c-1.41,2.44-2.74,4.94-4.07,7.44-1,1.79-1.9,3.59-2.94,5.39A45.49,45.49,0,0,0,458.26,262.21Z"/><path d="M419.27,358.12c1.51-1.62,3-3.38,4.45-5.11,1.83-2.17,3.67-4.35,5.59-6.46a77.2,77.2,0,0,1,6-6.07,29.68,29.68,0,0,1,7-4.82,29.32,29.32,0,0,0-6.52,5.36,76.14,76.14,0,0,0-5.41,6.49c-1.7,2.25-3.33,4.56-5,6.88-1.2,1.69-2.37,3.39-3.66,5.07A45.5,45.5,0,0,0,464.66,314S420.31,316.59,419.27,358.12Z"/><path d="M421.43,591.89h0a353.81,353.81,0,0,0,34.7-20.49,393.54,393.54,0,0,0,35.19-26.53,374,374,0,0,0,32.08-30.46,262.82,262.82,0,0,0,27.64-34.71,264.42,264.42,0,0,1-25.18,36.84,378.93,378.93,0,0,1-30.16,33.14,401.78,401.78,0,0,1-33.85,29.62q-13,10.14-26.92,19.15A182,182,0,0,0,603,417S426.58,427.12,421.43,591.89Z"/><path d="M350.71,549.72a352.15,352.15,0,0,1-50.58-70,348.9,348.9,0,0,0,55.18,65.4,302.74,302.74,0,0,0,65.89,46.65C415.95,427.11,239,417,239,417c0,96.21,74.66,175,169.2,181.55A314.82,314.82,0,0,1,350.71,549.72Z"/><path d="M341.44,421.94c-2.64-1.63-5.31-3.35-7.94-5.1a110.74,110.74,0,0,1-14.75-12,108.67,108.67,0,0,1-12.32-14.28,143.73,143.73,0,0,1-10-15.85,142.9,142.9,0,0,0,11.15,14.91A103.72,103.72,0,0,0,335.88,413c2.68,1.5,5.38,2.94,8.16,4.36l3.22,1.7c-2.49-75.56-83.44-80.21-83.44-80.21A83.64,83.64,0,0,0,342,422.32Z"/><path d="M409,343.82c-1.87-2.14-3.74-4.29-5.54-6.5a77.21,77.21,0,0,1-5.09-6.89,29.69,29.69,0,0,1-3.7-7.69A29.32,29.32,0,0,0,399,330a76.19,76.19,0,0,0,5.6,6.33c2,2,4,4,6,5.95,1.2,1.16,2.41,2.32,3.61,3.52,1.9-41.34-42-47.14-42-47.14a45.5,45.5,0,0,0,39.66,48.5C410.91,346,409.94,344.92,409,343.82Z"/><path d="M364.86,326.35c-1.87-2.14-3.74-4.29-5.54-6.5a77.23,77.23,0,0,1-5.09-6.89,29.68,29.68,0,0,1-3.7-7.69,29.31,29.31,0,0,0,4.31,7.25,76.14,76.14,0,0,0,5.6,6.33c2,2,4,4,6,5.95,1,1,2,1.93,3,2.92,1.53-39.36-40.67-46.27-40.67-46.27a45.5,45.5,0,0,0,40.34,50C367.83,329.74,366.33,328,364.86,326.35Z"/><path d="M369.23,331.51v0h0Z"/><path d="M352.54,366.95c-1.72-2.26-3.44-4.53-5.09-6.86a77.15,77.15,0,0,1-4.61-7.22,29.68,29.68,0,0,1-3.17-7.92,29.33,29.33,0,0,0,3.81,7.53,76.1,76.1,0,0,0,5.16,6.69c1.82,2.15,3.72,4.24,5.63,6.34,1.35,1.49,2.71,3,4,4.54,2.72-42.66-42.25-48.31-42.25-48.31a45.49,45.49,0,0,0,38.63,48.06C354,368.84,353.25,367.9,352.54,366.95Z"/><path d="M407.48,300.49c-1.17-2.59-2.34-5.19-3.42-7.83a77.24,77.24,0,0,1-2.88-8.07,29.69,29.69,0,0,1-1.32-8.43,29.32,29.32,0,0,0,2,8.19,76.16,76.16,0,0,0,3.53,7.68c1.3,2.51,2.68,5,4.07,7.44s2.66,4.67,3.85,7.22a45.49,45.49,0,0,0-18.12-61.45s-18.17,38.07,14.1,59.38C408.73,303.25,408.1,301.87,407.48,300.49Z"/><path d="M221.26,577a3.49,3.49,0,0,1-2.76-1.35,255.6,255.6,0,0,1-11.32-298.53A3.5,3.5,0,0,1,213,281a248.6,248.6,0,0,0,11,290.35,3.5,3.5,0,0,1-2.76,5.65Z"/><path d="M619,576.7a3.5,3.5,0,0,1-2.76-5.65,248.6,248.6,0,0,0,9.82-291.41,3.5,3.5,0,0,1,5.8-3.92,255.6,255.6,0,0,1-10.1,299.62A3.49,3.49,0,0,1,619,576.7Z"/></svg>