<svg id="Layer_1" data-name="Layer 1" xmlns="http://www.w3.org/2000/svg" xmlns:xlink="http://www.w3.org/1999/xlink" viewBox="0 0 1528 1568">
  <defs>
    <style>
      .cls-1 {
        fill: none;
      }

      .cls-2 {
        clip-path: url(#clip-path);
      }

      .cls-3 {
        fill: #3c485e;
      }
    </style>
    <clipPath id="clip-path">
      <rect class="cls-1" x="373" y="267" width="791" height="900"/>
    </clipPath>
  </defs>
  <title>otol_logo</title>
  <g>
    <g class="cls-2">
      <image width="2708" height="2028" transform="translate(-618 -358)" xlink:href="paint-sm.png"/>
    </g>
    <g>
      <path class="cls-3" d="M515,388.91a30,30,0,0,1-3.72-11.47C509,356,530,336,551,343a33.15,33.15,0,0,1,12.75,7.75C572,360,578,375,571.35,386.06a37.76,37.76,0,0,1-4.2,7.24,30.54,30.54,0,0,1-4.31,4.35,34.65,34.65,0,0,1-5.27,3.6,31.13,31.13,0,0,1-22.26,3.15Q522,401.57,515,388.91Zm8.08-4.38A22.64,22.64,0,0,0,554,394a22.3,22.3,0,0,0,9.88-11.25C567,373,564,363,556.62,355.62a19.4,19.4,0,0,0-5.7-3.39A19.61,19.61,0,0,0,544,351c-14-1-26,11-23.83,25.06A23.24,23.24,0,0,0,523,384.53Z"/>
      <path class="cls-3" d="M615.74,371.87a3,3,0,0,1-3.7-2S603,339,598.8,320.5c-1.61-5.8-1.91-6.78-1.91-6.78-.49-1.57.29-2.21,1.73-1.41l6,3.39c15.37,9.3,43.74,24.86,43.74,24.86,1.45.79,2.23.15,1.75-1.43,0,0-3.12-10.13-4.69-17.38l-3-9.64-2.34-7.51a3,3,0,0,1,2-3.75l3-.92a3,3,0,0,1,3.76,2l5.11,16.47,2.59,8.36c.49,1.57,1.22,4.17,1.62,5.77,0,0,2.87,11.5,5.79,18.1,1.78,5.73,2.07,6.68,2.07,6.68.49,1.58-.29,2.21-1.73,1.42,0,0-.86-.48-6.21-3.35-16-7.35-44.46-23.84-44.46-23.84-1.42-.83-2.3-.19-1.94,1.42l9,34.27a3,3,0,0,1-1.92,3.74Z"/>
      <path class="cls-3" d="M727.51,291a3.05,3.05,0,0,1-2.6,3.39l-18,2.47a3,3,0,0,0-2.6,3.38l1,8.47a3,3,0,0,0,3.35,2.58L726,308.92a3,3,0,0,1,3.33,2.57l.33,2.67a3.05,3.05,0,0,1-2.61,3.38l-17.35,2.31a3,3,0,0,0-2.61,3.37l1.75,14.23a3,3,0,0,0,3.34,2.6l18.05-2.28a3,3,0,0,1,3.34,2.6l.32,2.59a3,3,0,0,1-2.61,3.35l-27.08,3.36a3,3,0,0,1-3.34-2.61l-6.69-54a3.07,3.07,0,0,1,2.61-3.39l27.08-3.7a3,3,0,0,1,3.34,2.57Z"/>
      <path class="cls-3" d="M839.82,298a2.94,2.94,0,0,0-3.27,2.64l-4.42,45.32a2.9,2.9,0,0,1-3.27,2.6l-3.08-.39a3.16,3.16,0,0,1-2.71-3.37L827,299.47a3.14,3.14,0,0,0-2.72-3.36l-8.1-1a3,3,0,0,1-2.62-3.35l.29-2.52a3,3,0,0,1,3.33-2.62l32.51,3.87a3,3,0,0,1,2.61,3.34l-.32,2.53a3,3,0,0,1-3.35,2.63Z"/>
      <path class="cls-3" d="M903.55,336.48a2.21,2.21,0,0,0-2,3.07l7.66,22.2c.54,1.56-.33,2.49-1.92,2.05l-6.07-1.65a5.93,5.93,0,0,1-3.73-3.66l-5.84-20.29c-.46-1.58-1.18-3-1.61-3.07s-1.3,1.06-1.94,2.58l-7.13,17a3.84,3.84,0,0,1-4.11,2.17l-2.25-.46a2.55,2.55,0,0,1-2-3.42l17.84-51.38a3.22,3.22,0,0,1,3.87-2l4.49,1.27c1.58.45,4.13,1.33,5.66,1.95,0,0,10,4.07,12.6,7.92a16.38,16.38,0,0,1,2,14.27,15.44,15.44,0,0,1-6.88,9C908.74,336.09,903.55,336.48,903.55,336.48Zm-10.46-11.63c-.49,1.58-.27,3,.49,3.22a25.51,25.51,0,0,0,4.38.44s10.62.27,12.58-5.82c1.7-5.9-6.94-10.82-6.94-10.82a24.55,24.55,0,0,0-4.17-1.93c-.86-.25-2,.84-2.45,2.42Z"/>
      <path class="cls-3" d="M994.61,343a3,3,0,0,1-4,1.47l-16.49-7.61a3,3,0,0,0-4,1.46l-3.52,7.44a2.94,2.94,0,0,0,1.46,3.94l15.83,7.12a2.89,2.89,0,0,1,1.42,3.92l-.95,1.94a3.15,3.15,0,0,1-4.06,1.48l-15.83-7a3.11,3.11,0,0,0-4,1.5l-5.88,12.38A2.89,2.89,0,0,0,956,375l16.45,7.11A2.91,2.91,0,0,1,974,386l-1.09,2.37a3.08,3.08,0,0,1-4,1.53L944,379.11a2.89,2.89,0,0,1-1.47-3.9l22.9-48.46a3,3,0,0,1,4-1.45l24.75,11.47a3,3,0,0,1,1.45,4Z"/>
      <path class="cls-3" d="M1058.44,382.78a3,3,0,0,1-4.16.84l-15.15-10.05a3.06,3.06,0,0,0-4.19.82l-4.71,6.89a3,3,0,0,0,.8,4.15l14.2,9.56a2.75,2.75,0,0,1,.63,4l-1.6,2a3.27,3.27,0,0,1-4.34.67L1026,392.26a3.17,3.17,0,0,0-4.27.73l-8.39,11.3a2.9,2.9,0,0,0,.69,4.12l14,9.67a3,3,0,0,1,.75,4.16l-1.48,2.13a3,3,0,0,1-4.16.73l-20.74-14.62a3,3,0,0,1-.75-4.19l30.6-44.23a3,3,0,0,1,4.19-.79l22.59,15.2a3,3,0,0,1,.83,4.17Z"/>
    </g>
    <g>
      <path class="cls-3" d="M524.1,1193.61a29.64,29.64,0,0,1,18.36-15.12,30.7,30.7,0,0,1,24,2.15A30.06,30.06,0,0,1,581.88,1199a28.68,28.68,0,0,1-2.25,23.48,29.91,29.91,0,0,1-18.83,14.68,32.58,32.58,0,0,1-24.14-2.15,29.14,29.14,0,0,1-14.5-16.18Q517.42,1206.48,524.1,1193.61Zm8,4.21q-4.7,8.76-1.89,17.26a19.8,19.8,0,0,0,10.35,12.21,23.6,23.6,0,0,0,30.8-9.36,21.21,21.21,0,0,0-8.91-29.77,21.58,21.58,0,0,0-17.14-1.47A22.16,22.16,0,0,0,532.1,1197.82Z"/>
      <path class="cls-3" d="M609.46,1262.06a2.8,2.8,0,0,1-2.09-3.54l15.41-52.67c.46-1.59,1.47-1.69,2.24-.23l26.85,51c.77,1.46,1.77,1.36,2.22-.22l9.87-34.54a3,3,0,0,1,3.71-2.06l3,.86a3,3,0,0,1,2.06,3.7l-15.92,55.69c-.46,1.59-1.46,1.69-2.23.23l-26.88-50.85c-.77-1.45-1.79-1.35-2.26.23l-9.21,30.83a3.27,3.27,0,0,1-3.79,2.21Z"/>
      <path class="cls-3" d="M738,1236a3.18,3.18,0,0,1-3.43,2.65l-16.86-1.8a3,3,0,0,0-3.3,2.66l-.89,8.44a3,3,0,0,0,2.67,3.31l16.21,1.73a3.18,3.18,0,0,1,2.8,3.31l-.15,2.56a2.86,2.86,0,0,1-3.17,2.68l-16.4-1.75a2.9,2.9,0,0,0-3.22,2.67l-1.14,14.11a3.11,3.11,0,0,0,2.74,3.31l17.76,1.9a3.15,3.15,0,0,1,2.77,3.32l-.18,2.55a2.88,2.88,0,0,1-3.2,2.67l-27.08-2.9a3,3,0,0,1-2.68-3.31l5.61-54a3,3,0,0,1,3.3-2.67l25.67,2.75a2.87,2.87,0,0,1,2.55,3.29Z"/>
      <path class="cls-3" d="M825.13,1228.05a3.05,3.05,0,0,1,3.4,2.58l6.35,44.24a3,3,0,0,0,3.4,2.55l11.64-1.68a3,3,0,0,1,3.38,2.54l.34,2.44a3.07,3.07,0,0,1-2.56,3.42l-20.85,3.21a3,3,0,0,1-3.38-2.52l-7.36-53a3,3,0,0,1,2.57-3.36Z"/>
      <path class="cls-3" d="M880.8,1217.72a2.88,2.88,0,0,1,3.53,2.21l11.19,52.77a3.09,3.09,0,0,1-2.29,3.63l-2.78.65a3,3,0,0,1-3.56-2.24l-11.38-52.62a3.12,3.12,0,0,1,2.27-3.66Z"/>
      <path class="cls-3" d="M948.84,1199.69a3,3,0,0,1-1.68,3.9l-14.29,5.68a3.12,3.12,0,0,0-1.77,3.93l2.95,8.18a2.89,2.89,0,0,0,3.8,1.72l13.56-5.36a2.81,2.81,0,0,1,3.74,1.74l.91,2.72a3.2,3.2,0,0,1-1.85,3.94l-13.51,5.3a3.13,3.13,0,0,0-1.79,3.92l7.77,21.85a3.08,3.08,0,0,1-1.8,3.88l-3,1.13a3,3,0,0,1-3.84-1.77L919.25,1209A3.13,3.13,0,0,1,921,1205l23-9.31a3,3,0,0,1,3.89,1.66Z"/>
      <path class="cls-3" d="M1005.82,1171.75a3,3,0,0,1-1.18,4.08l-15.88,8.75a3,3,0,0,0-1.18,4.08l4.11,7.47a3,3,0,0,0,4.08,1.18l15.28-8.46a3,3,0,0,1,4.08,1.17l1.24,2.24a3,3,0,0,1-1.17,4.07l-15.29,8.47a3,3,0,0,0-1.17,4.08l6.86,12.38a3,3,0,0,0,4.08,1.17l15.9-8.8a3,3,0,0,1,4.08,1.17l1.23,2.23a3,3,0,0,1-1.17,4.08l-23.86,13.22a3,3,0,0,1-4.07-1.18l-26.17-47.84a3,3,0,0,1,1.19-4.07l23.68-12.91a3,3,0,0,1,4.09,1.19Z"/>
    </g>
  </g>
</svg>
